<svg width="54" height="55" viewBox="0 0 54 55" fill="none" xmlns="http://www.w3.org/2000/svg">
<path d="M46.5756 35.3368L26.7577 44.9547L9.65854 36.6192V18.4521L26.5431 10.0453L38.348 15.8873L24.6829 22.513C22.322 23.6529 21.3203 26.5026 22.465 28.8536C23.0374 29.9935 24.039 30.8485 25.2553 31.2759C26.4715 31.7034 27.7594 31.6321 28.9041 31.0622L51.226 20.2332C52.8715 19.4495 53.9447 17.8109 53.9447 16.0298C53.9447 14.2487 52.9431 12.6101 51.2976 11.7552L28.6894 0.498716C27.3301 -0.142476 25.6846 -0.142476 24.3252 0.498716L2.64715 11.3277C1.00163 12.1114 0 13.75 0 15.5311V39.6114C0 41.3925 1.00163 43.0311 2.7187 43.886L24.6829 54.5725C25.3268 54.8575 26.1138 55.0713 26.8293 55.0713C27.5447 55.0713 28.3317 54.9288 28.9756 54.5725L50.9398 43.886C53.3008 42.7461 54.3024 39.8964 53.1577 37.5453C51.8699 35.1231 48.9366 34.1969 46.5756 35.3368Z" fill="#275CF1"/>
</svg>
