<svg width="24" height="24" viewBox="0 0 24 24" fill="none" xmlns="http://www.w3.org/2000/svg">
<path d="M5.34082 10.62C5.60446 11.2133 6.00855 11.7335 6.51818 12.1356C7.02782 12.5378 7.62769 12.8099 8.26601 12.9284C8.90432 13.0469 9.56188 13.0083 10.1819 12.8158C10.802 12.6234 11.3658 12.2829 11.8248 11.8238C12.2839 11.3647 12.6242 10.8007 12.8166 10.1807C13.0089 9.5606 13.0474 8.90303 12.9288 8.26474C12.8102 7.62646 12.538 7.02663 12.1357 6.51707C11.7334 6.00751 11.2131 5.60352 10.6198 5.34M10.1652 6.598C9.95421 7.478 9.64021 8.36 9.00021 9C8.36021 9.64 7.47921 9.954 6.59821 10.165C5.16877 10.5073 3.91472 11.3625 3.07399 12.5681C2.23327 13.7738 1.86437 15.2462 2.03728 16.7058C2.2102 18.1655 2.9129 19.5109 4.01205 20.4868C5.11121 21.4627 6.53035 22.0011 8.00021 22C15.7322 22 22.0002 15.732 22.0002 8C22.0013 6.53014 21.4629 5.111 20.487 4.01184C19.5111 2.91268 18.1657 2.20998 16.706 2.03707C15.2464 1.86415 13.774 2.23306 12.5684 3.07378C11.3627 3.9145 10.5075 5.16856 10.1652 6.598Z" stroke="#09090B" stroke-width="2" stroke-linecap="round" stroke-linejoin="round"/>
</svg>
