<svg width="24" height="24" viewBox="0 0 24 24" fill="none" xmlns="http://www.w3.org/2000/svg">
<path fill-rule="evenodd" clip-rule="evenodd" d="M8.9789 6.1448C7.65696 5.5573 5.99625 5.8585 5.00186 7.14017L4.6925 7.53889C3.36345 9.2519 3.55535 11.6947 5.13558 13.1792L12.0002 19.6278L18.8649 13.1792C20.4451 11.6947 20.637 9.25189 19.308 7.53889L18.9986 7.14017C17.8197 5.62065 15.7043 5.47843 14.3253 6.56449L13.0878 4.99329C15.2843 3.26335 18.6773 3.46343 20.5788 5.91417L20.8881 6.31289C22.8496 8.84095 22.5664 12.4461 20.2342 14.6369L13.2816 21.1681C13.275 21.1743 13.2684 21.1806 13.2616 21.187C13.1601 21.2824 13.0376 21.3975 12.9201 21.4881C12.7813 21.595 12.5728 21.7301 12.2891 21.7857C12.0983 21.8232 11.9021 21.8232 11.7114 21.7857C11.4276 21.7301 11.2192 21.595 11.0804 21.4881C10.9628 21.3975 10.8404 21.2824 10.7389 21.1869C10.7321 21.1806 10.7254 21.1743 10.7188 21.1681L3.76623 14.6369C1.43411 12.4461 1.15091 8.84096 3.11233 6.3129L3.90242 6.9259L3.11233 6.3129L3.42169 5.91418C5.37691 3.39411 8.90917 3.25294 11.098 5.1463L11.8208 5.7716L11.2288 6.52199L10.1931 7.83476C9.84653 8.27407 9.654 8.52186 9.54389 8.71047C9.54246 8.71293 9.54106 8.71534 9.5397 8.7177C9.54181 8.71943 9.54397 8.72119 9.54618 8.72298C9.71601 8.8603 9.98388 9.02374 10.4637 9.31164L11.7162 10.0631C11.7322 10.0727 11.7483 10.0824 11.7643 10.092C12.1446 10.3201 12.5123 10.5406 12.7893 10.7629C13.1005 11.0128 13.4209 11.3593 13.5377 11.8789C13.6546 12.3985 13.5134 12.8488 13.3391 13.2078C13.1839 13.5273 12.9461 13.884 12.7 14.253C12.6896 14.2685 12.6792 14.2841 12.6688 14.2997L11.8323 15.5545L10.1682 14.4451L11.0047 13.1903C11.2939 12.7565 11.452 12.5155 11.5399 12.3343C11.5411 12.332 11.5422 12.3296 11.5432 12.3274C11.5413 12.3258 11.5393 12.3242 11.5373 12.3226C11.3802 12.1965 11.1342 12.0463 10.6872 11.7781L9.43472 11.0266C9.4178 11.0165 9.4009 11.0063 9.38404 10.9962C8.97398 10.7503 8.58123 10.5147 8.28868 10.2782C7.96197 10.014 7.62384 9.64333 7.52198 9.08738C7.42012 8.53144 7.60486 8.06495 7.8167 7.70211C8.00638 7.37721 8.29011 7.01771 8.58634 6.64237C8.59853 6.62693 8.61073 6.61147 8.62295 6.59598L8.9789 6.1448ZM9.45458 8.63835C9.4546 8.63835 9.45502 8.63886 9.45575 8.63988C9.45492 8.63885 9.45455 8.63834 9.45458 8.63835ZM9.48879 8.82024C9.48847 8.82144 9.48826 8.82207 9.48824 8.82208L9.48879 8.82024Z" fill="#0B1C48" fill-opacity="0.5"/>
</svg>
