<svg width="24" height="24" viewBox="0 0 24 24" fill="none" xmlns="http://www.w3.org/2000/svg">
<path d="M7 16L7.27627 17.6576C7.54232 19.2539 7.67535 20.0521 8.23484 20.526C8.79433 21 9.6035 21 11.2218 21H12.7782C14.3965 21 15.2057 21 15.7652 20.526C16.3247 20.0521 16.4577 19.2539 16.7237 17.6576L17 16" stroke="#0B1C48" stroke-opacity="0.5" stroke-width="2" stroke-linecap="round" stroke-linejoin="round"/>
<path d="M13.5 4.5C14 3.5 15 3 16 3" stroke="#0B1C48" stroke-opacity="0.5" stroke-width="2" stroke-linecap="round"/>
<circle cx="12" cy="6" r="2" stroke="#0B1C48" stroke-opacity="0.5" stroke-width="2" stroke-linecap="round" stroke-linejoin="round"/>
<path fill-rule="evenodd" clip-rule="evenodd" d="M10 7.53515C9.26376 7.96094 8.67546 8.61482 8.33205 9.40129C8.17639 9.75776 7.82814 9.99163 7.43926 10.0008C6.08688 10.0328 5 11.1397 5 12.5001C5 13.8808 6.11929 15.0001 7.5 15.0001C8.04262 15.0001 8.54217 14.8284 8.95113 14.5362C9.26819 14.3097 9.68796 14.2879 10.0267 14.4805C10.6081 14.811 11.2804 15.0001 12 15.0001C12.7196 15.0001 13.3919 14.811 13.9733 14.4805C14.312 14.2879 14.7318 14.3097 15.0489 14.5362C15.4578 14.8284 15.9574 15.0001 16.5 15.0001C17.8807 15.0001 19 13.8808 19 12.5001C19 11.1397 17.9131 10.0328 16.5607 10.0008C16.1719 9.99163 15.8236 9.75776 15.668 9.40129C15.3245 8.61482 14.7362 7.96094 14 7.53515V5.34155C15.3777 5.82855 16.5238 6.80433 17.2308 8.05921C19.3687 8.40845 21 10.2637 21 12.5001C21 14.9854 18.9853 17.0001 16.5 17.0001C15.7509 17.0001 15.0429 16.8164 14.4205 16.4916C13.6793 16.8187 12.8599 17.0001 12 17.0001C11.1401 17.0001 10.3207 16.8187 9.57953 16.4916C8.95709 16.8164 8.24912 17.0001 7.5 17.0001C5.01472 17.0001 3 14.9854 3 12.5001C3 10.2637 4.63129 8.40845 6.76921 8.05921C7.47619 6.80433 8.62233 5.82855 10 5.34155V7.53515Z" fill="#0B1C48" fill-opacity="0.5"/>
</svg>
