<svg width="24" height="24" viewBox="0 0 24 24" fill="none" xmlns="http://www.w3.org/2000/svg">
<path d="M12.0005 2V4M4.93066 4.92999L6.34066 6.33999M20.0005 12H22.0005M19.0706 4.92999L17.6606 6.33999M15.9475 12.65C16.0705 11.9045 15.9799 11.1394 15.6862 10.4432C15.3924 9.74711 14.9074 9.14841 14.2875 8.71648C13.6675 8.28455 12.9379 8.03705 12.1831 8.00263C11.4283 7.96821 10.6792 8.14828 10.0225 8.522M3.00055 20C2.55109 19.4002 2.24225 18.7069 2.09688 17.9716C1.95151 17.2362 1.97334 16.4776 2.16073 15.7519C2.34813 15.0261 2.69631 14.3517 3.17951 13.7787C3.66271 13.2057 4.26857 12.7486 4.95226 12.4413C5.63595 12.134 6.37998 11.9844 7.12931 12.0035C7.87864 12.0226 8.61408 12.2099 9.28124 12.5516C9.9484 12.8933 10.5302 13.3806 10.9836 13.9775C11.437 14.5745 11.7504 15.2657 11.9005 16H13.0006C13.609 15.9991 14.2033 16.1833 14.7047 16.528C15.2061 16.8728 15.5908 17.3618 15.8077 17.9303C16.0247 18.4987 16.0637 19.1197 15.9195 19.7108C15.7754 20.302 15.4549 20.8353 15.0006 21.24M11.0005 20V22M7.00049 19V21" stroke="#09090B" stroke-width="2" stroke-linecap="round" stroke-linejoin="round"/>
</svg>
