<svg width="24" height="24" viewBox="0 0 24 24" fill="none" xmlns="http://www.w3.org/2000/svg">
<path d="M2.69991 10.3C2.47586 10.5238 2.29812 10.7896 2.17685 11.0821C2.05558 11.3747 1.99316 11.6883 1.99316 12.005C1.99316 12.3217 2.05558 12.6353 2.17685 12.9278C2.29812 13.2204 2.47586 13.4862 2.69991 13.71L10.2899 21.3C10.5137 21.524 10.7795 21.7018 11.0721 21.823C11.3646 21.9443 11.6782 22.0067 11.9949 22.0067C12.3116 22.0067 12.6252 21.9443 12.9177 21.823C13.2103 21.7018 13.4761 21.524 13.6999 21.3L21.2899 13.71C21.514 13.4862 21.6917 13.2204 21.813 12.9278C21.9342 12.6353 21.9967 12.3217 21.9967 12.005C21.9967 11.6883 21.9342 11.3747 21.813 11.0821C21.6917 10.7896 21.514 10.5238 21.2899 10.3L13.6999 2.70998C13.4761 2.48593 13.2103 2.30819 12.9177 2.18692C12.6252 2.06565 12.3116 2.00323 11.9949 2.00323C11.6782 2.00323 11.3646 2.06565 11.0721 2.18692C10.7795 2.30819 10.5137 2.48593 10.2899 2.70998L2.69991 10.3Z" stroke="#09090B" stroke-width="2" stroke-linecap="round" stroke-linejoin="round"/>
</svg>
