<svg width="24" height="24" viewBox="0 0 24 24" fill="none" xmlns="http://www.w3.org/2000/svg">
<path d="M10 14L11 14L11 13L10 13L10 14ZM4.29289 18.2929C3.90237 18.6834 3.90237 19.3166 4.29289 19.7071C4.68342 20.0976 5.31658 20.0976 5.70711 19.7071L4.29289 18.2929ZM11 20L11 14L9 14L9 20L11 20ZM10 13L4 13L4 15L10 15L10 13ZM9.29289 13.2929L4.29289 18.2929L5.70711 19.7071L10.7071 14.7071L9.29289 13.2929Z" fill="#0B1C48" fill-opacity="0.5"/>
<path d="M14 10H13V11H14V10ZM19.7071 5.70711C20.0976 5.31658 20.0976 4.68342 19.7071 4.29289C19.3166 3.90237 18.6834 3.90237 18.2929 4.29289L19.7071 5.70711ZM13 4V10H15V4H13ZM14 11H20V9H14V11ZM14.7071 10.7071L19.7071 5.70711L18.2929 4.29289L13.2929 9.29289L14.7071 10.7071Z" fill="#0B1C48" fill-opacity="0.5"/>
</svg>
