<svg width="24" height="24" viewBox="0 0 24 24" fill="none" xmlns="http://www.w3.org/2000/svg">
<path d="M21.4398 11.05L12.2498 20.24C11.124 21.3659 9.59699 21.9984 8.0048 21.9984C6.41262 21.9984 4.88565 21.3659 3.7598 20.24C2.63396 19.1142 2.00146 17.5872 2.00146 15.995C2.00146 14.4029 2.63396 12.8759 3.7598 11.75L12.3298 3.18003C13.0804 2.42815 14.0989 2.00521 15.1613 2.00427C16.2237 2.00334 17.2429 2.42447 17.9948 3.17503C18.7467 3.9256 19.1696 4.9441 19.1706 6.0065C19.1715 7.06889 18.7504 8.08815 17.9998 8.84003L9.4098 17.41C9.03452 17.7853 8.52553 17.9961 7.9948 17.9961C7.46407 17.9961 6.95508 17.7853 6.5798 17.41C6.20452 17.0348 5.99369 16.5258 5.99369 15.995C5.99369 15.4643 6.20452 14.9553 6.5798 14.58L15.0698 6.10003" stroke="#09090B" stroke-width="2" stroke-linecap="round" stroke-linejoin="round"/>
</svg>
