<svg width="24" height="24" viewBox="0 0 24 24" fill="none" xmlns="http://www.w3.org/2000/svg">
<path d="M16.0001 12C15.4478 12 15.0001 12.4477 15.0001 13C15.0001 13.5523 15.4478 14 16.0001 14V12ZM14.4325 13.5677L13.7254 12.8606L14.4325 13.5677ZM14.1933 13.8069L13.4862 13.0998L14.1933 13.8069ZM10.4323 9.56781L9.72524 8.8607L10.4323 9.56781ZM20.0001 8C20.0001 10.2091 18.2092 12 16.0001 12V14C19.3138 14 22.0001 11.3137 22.0001 8H20.0001ZM16.0001 4C18.2092 4 20.0001 5.79086 20.0001 8H22.0001C22.0001 4.68629 19.3138 2 16.0001 2V4ZM12.0001 8C12.0001 5.79086 13.791 4 16.0001 4V2C12.6864 2 10.0001 4.68629 10.0001 8H12.0001ZM10.9003 10.514L11.1395 10.2749L9.72524 8.8607L9.48613 9.09981L10.9003 10.514ZM11.5141 13.0998L10.9003 12.486L9.48613 13.9002L10.0999 14.514L11.5141 13.0998ZM13.7254 12.8606L13.4862 13.0998L14.9004 14.514L15.1396 14.2748L13.7254 12.8606ZM15.1396 14.2748C15.2975 14.1169 15.585 14 16.0001 14V12C15.2617 12 14.3831 12.2029 13.7254 12.8606L15.1396 14.2748ZM10.0999 14.514C11.4255 15.8396 13.5748 15.8396 14.9004 14.514L13.4862 13.0998C12.9416 13.6443 12.0587 13.6443 11.5141 13.0998L10.0999 14.514ZM9.48613 9.09981C8.16055 10.4254 8.16055 12.5746 9.48613 13.9002L10.9003 12.486C10.3558 11.9414 10.3558 11.0586 10.9003 10.514L9.48613 9.09981ZM10.0001 8C10.0001 8.41517 9.8832 8.70275 9.72524 8.8607L11.1395 10.2749C11.7972 9.61716 12.0001 8.73842 12.0001 8H10.0001Z" fill="#0B1C48" fill-opacity="0.5"/>
<path d="M6.5 15.5L9.5 12.5L11.5 14.5L8.5 17.5L6.30128 18.8192C6.12422 18.9255 5.89757 18.8976 5.75156 18.7516L5.24844 18.2484C5.10243 18.1024 5.07453 17.8758 5.18077 17.6987L6.5 15.5Z" stroke="#0B1C48" stroke-opacity="0.5" stroke-width="2" stroke-linecap="round" stroke-linejoin="round"/>
</svg>
