<?xml version="1.0" encoding="utf-8"?>
<svg version="1.1" id="Calque_1" xmlns="http://www.w3.org/2000/svg"
     x="0px" y="0px" viewBox="0 0 64.2 66.9"
     style="enable-background:new 0 0 64.2 66.9;" xml:space="preserve">

  <g>
    <path fill="#FFFFFF" d="M57.8,13.9L46.7,18c3.9,4.1,5.9,9.5,5.9,15.8s-2,11.5-5.9,15.7c-3.9,4.2-8.8,6.3-14.5,6.3
        s-10.8-2.1-14.7-6.2c-3.9-4.2-5.9-9.3-5.9-15.6c0-1.3,0.1-2.2,0.3-3.4L0,34.8c0,4.2,0.8,7.6,2.4,11.7c1.6,4.1,3.9,7.6,6.8,10.7
        c3.1,3.2,6.5,5.6,10.4,7.3c3.9,1.6,8.1,2.5,12.6,2.5s8.6-0.9,12.6-2.7c3.9-1.8,7.5-4.4,10.7-7.9c2.8-3,4.9-6.6,6.4-10.6
        s2.3-8.2,2.3-12.5s-0.8-8.2-2.5-12.2C60.7,18.5,59.5,16.1,57.8,13.9z"/>

    <polygon fill="#FFFFFF" points="24.5,7.8 42.9,0 47.2,10.2 28.8,18"/>
    <polygon fill="#FFFFFF" points="3.7,7 13.9,2.7 21.7,21 11.5,25.3"/>
  </g>
</svg>
