<svg width="556" height="200" viewBox="0 0 556 200" fill="none" xmlns="http://www.w3.org/2000/svg">
<g clip-path="url(#clip0_813_3859)">
<path d="M99.5435 53.6459C93.9862 48.0278 87.9016 43.8295 81.2897 41.0509C74.6575 38.2722 67.4575 36.8931 59.7098 36.8931C50.9683 36.8931 43.18 38.3331 36.345 41.2131C29.51 44.0931 23.2226 48.5552 17.4625 54.5789C12.1892 60.055 8.13285 66.4033 5.29338 73.6236C2.45391 80.844 1.03418 88.47 1.03418 96.5016C1.03418 113.762 6.71312 128.141 18.0913 139.621C29.4694 151.101 43.7479 156.84 60.947 156.84C68.289 156.84 75.2254 155.441 81.6954 152.622C88.1856 149.802 94.0471 145.665 99.3204 140.189V141.649C99.3204 153.169 95.7913 162.398 88.7129 169.375C81.6345 176.352 72.3048 179.84 60.7239 179.84C54.0714 179.84 48.1491 178.441 42.9772 175.621C37.8053 172.822 33.6272 168.746 30.443 163.391H8.49793C12.4529 174.688 19.0648 183.45 28.3742 189.656C37.6633 195.863 48.8589 198.966 61.9813 198.966C80.0931 198.966 94.2904 193.327 104.634 182.051C114.978 170.774 120.13 155.197 120.13 135.281V39.8137H99.5232V53.6459H99.5435ZM88.7738 125.383C81.0463 133.252 72.102 137.187 61.9813 137.187C50.8871 137.187 41.4966 133.273 33.8503 125.424C26.1838 117.595 22.3505 107.88 22.3505 96.2988C22.3505 84.7178 26.1838 75.9358 33.8503 68.3098C41.5169 60.6838 50.7452 56.8708 61.5757 56.8708C72.4062 56.8708 81.2289 60.8866 88.8752 68.8776C96.5417 76.889 100.375 86.5026 100.375 97.7388C100.375 108.285 96.5012 117.493 88.7738 125.363V125.383Z" fill="#D94542" stroke="#D94542" stroke-miterlimit="10"/>
<path d="M99.5435 53.6459C93.9862 48.0278 87.9016 43.8295 81.2897 41.0509C74.6575 38.2722 67.4575 36.8931 59.7098 36.8931C50.9683 36.8931 43.18 38.3331 36.345 41.2131C29.51 44.0931 23.2226 48.5552 17.4625 54.5789C12.1892 60.055 8.13285 66.4033 5.29338 73.6236C2.45391 80.844 1.03418 88.47 1.03418 96.5016C1.03418 113.762 6.71312 128.141 18.0913 139.621C29.4694 151.101 43.7479 156.84 60.947 156.84C68.289 156.84 75.2254 155.441 81.6954 152.622C88.1856 149.802 94.0471 145.665 99.3204 140.189V141.649C99.3204 153.169 95.7913 162.398 88.7129 169.375C81.6345 176.352 72.3048 179.84 60.7239 179.84C54.0714 179.84 48.1491 178.441 42.9772 175.621C37.8053 172.822 33.6272 168.746 30.443 163.391H8.49793C12.4529 174.688 19.0648 183.45 28.3742 189.656C37.6633 195.863 48.8589 198.966 61.9813 198.966C80.0931 198.966 94.2904 193.327 104.634 182.051C114.978 170.774 120.13 155.197 120.13 135.281V39.8137H99.5232V53.6459H99.5435ZM88.7738 125.383C81.0463 133.252 72.102 137.187 61.9813 137.187C50.8871 137.187 41.4966 133.273 33.8503 125.424C26.1838 117.595 22.3505 107.88 22.3505 96.2988C22.3505 84.7178 26.1838 75.9358 33.8503 68.3098C41.5169 60.6838 50.7452 56.8708 61.5757 56.8708C72.4062 56.8708 81.2289 60.8866 88.8752 68.8776C96.5417 76.889 100.375 86.5026 100.375 97.7388C100.375 108.285 96.5012 117.493 88.7738 125.363V125.383Z" fill="#D94542" stroke="#D94542" stroke-miterlimit="10"/>
<path d="M164.446 2.77881H144.062V26.387H164.446V2.77881Z" fill="#D94542" stroke="#D94542" stroke-miterlimit="10"/>
<path d="M164.446 2.77881H144.062V26.387H164.446V2.77881Z" fill="#D94542" stroke="#D94542" stroke-miterlimit="10"/>
<path d="M164.446 39.8135H144.062V154.244H164.446V39.8135Z" fill="#D94542" stroke="#D94542" stroke-miterlimit="10"/>
<path d="M164.446 39.8135H144.062V154.244H164.446V39.8135Z" fill="#D94542" stroke="#D94542" stroke-miterlimit="10"/>
<path d="M194.097 36.3858V39.8135H181.097V57.7021H194.726V154.244H215.211V57.7224H233.1V39.8338H214.278V38.1706C214.278 31.6601 215.596 26.9953 218.233 24.237C220.87 21.4583 225.23 20.0792 231.335 20.0792H233.1V1.01416C220.139 1.01416 210.384 3.97532 203.873 9.91792C197.363 15.8402 194.097 24.6832 194.097 36.3858Z" fill="#D94542" stroke="#D94542" stroke-miterlimit="10"/>
<path d="M194.097 36.3858V39.8135H181.097V57.7021H194.726V154.244H215.211V57.7224H233.1V39.8338H214.278V38.1706C214.278 31.6601 215.596 26.9953 218.233 24.237C220.87 21.4583 225.23 20.0792 231.335 20.0792H233.1V1.01416C220.139 1.01416 210.384 3.97532 203.873 9.91792C197.363 15.8402 194.097 24.6832 194.097 36.3858Z" fill="#D94542" stroke="#D94542" stroke-miterlimit="10"/>
<path d="M279.627 2.77881H259.122V39.8136H242.896V58.5541H259.122V154.264H279.627V58.5541H295.853V39.8136H279.627V2.77881Z" fill="#D94542" stroke="#D94542" stroke-miterlimit="10"/>
<path d="M279.627 2.77881H259.122V39.8136H242.896V58.5541H259.122V154.264H279.627V58.5541H295.853V39.8136H279.627V2.77881Z" fill="#D94542" stroke="#D94542" stroke-miterlimit="10"/>
<path d="M382.152 131.893C376.575 135.159 370.389 136.781 363.574 136.781C354.062 136.781 346.375 133.354 339.58 127.31C335.463 123.659 334.53 122.442 330.514 114.938L419.958 80.1338C418.355 73.9276 415.901 68.2284 412.575 63.0159C406.957 54.6192 399.838 48.0884 391.198 43.4033C382.558 38.7182 373.208 36.3857 363.168 36.3857C354.711 36.3857 346.902 37.9677 339.763 41.1114C332.624 44.2754 326.194 48.9605 320.515 55.2074C315.181 60.9674 311.125 67.3359 308.387 74.3535C305.649 81.3508 304.27 88.8753 304.27 96.9273C304.27 104.979 305.77 112.301 308.792 119.765C311.814 127.228 315.992 133.759 321.327 139.377C327.006 145.34 333.354 149.822 340.371 152.804C347.369 155.785 355.116 157.286 363.574 157.286C376.128 157.286 387.141 153.919 396.613 147.186C406.085 140.452 420.769 123.699 421.763 103.377L399.148 111.774C396.106 119.826 387.75 128.628 382.172 131.893H382.152ZM340.939 64.8007C347.592 59.284 355.38 56.8502 364.405 56.8502C373.431 56.8502 381.868 59.933 387.081 64.5979C393.145 70.0334 393.794 71.8588 393.794 71.8588L327.249 98.347C326.945 89.3824 329.419 74.3535 340.919 64.821L340.939 64.8007Z" fill="#D94542" stroke="#D94542" stroke-miterlimit="10"/>
<path d="M382.152 131.893C376.575 135.159 370.389 136.781 363.574 136.781C354.062 136.781 346.375 133.354 339.58 127.31C335.463 123.659 334.53 122.442 330.514 114.938L419.958 80.1338C418.355 73.9276 415.901 68.2284 412.575 63.0159C406.957 54.6192 399.838 48.0884 391.198 43.4033C382.558 38.7182 373.208 36.3857 363.168 36.3857C354.711 36.3857 346.902 37.9677 339.763 41.1114C332.624 44.2754 326.194 48.9605 320.515 55.2074C315.181 60.9674 311.125 67.3359 308.387 74.3535C305.649 81.3508 304.27 88.8753 304.27 96.9273C304.27 104.979 305.77 112.301 308.792 119.765C311.814 127.228 315.992 133.759 321.327 139.377C327.006 145.34 333.354 149.822 340.371 152.804C347.369 155.785 355.116 157.286 363.574 157.286C376.128 157.286 387.141 153.919 396.613 147.186C406.085 140.452 420.769 123.699 421.763 103.377L399.148 111.774C396.106 119.826 387.75 128.628 382.172 131.893H382.152ZM340.939 64.8007C347.592 59.284 355.38 56.8502 364.405 56.8502C373.431 56.8502 381.868 59.933 387.081 64.5979C393.145 70.0334 393.794 71.8588 393.794 71.8588L327.249 98.347C326.945 89.3824 329.419 74.3535 340.919 64.821L340.939 64.8007Z" fill="#D94542" stroke="#D94542" stroke-miterlimit="10"/>
<path d="M542.886 59.6899L522.482 67.1334C529.662 74.6986 533.394 84.657 533.394 96.238C533.394 107.819 529.804 117.331 522.624 124.998C515.444 132.664 506.561 136.498 495.933 136.498C485.305 136.498 476.077 132.685 468.836 125.059C461.596 117.433 457.965 107.9 457.965 96.4408C457.965 93.9867 458.127 92.3844 458.472 90.1128L436.689 98.0228C436.689 105.791 438.15 112.038 441.172 119.501C444.194 126.965 448.372 133.496 453.706 139.114C459.324 145.016 465.672 149.458 472.751 152.48C479.829 155.502 487.557 157.003 495.953 157.003C504.35 157.003 511.854 155.36 519.095 152.054C526.336 148.768 532.887 143.921 538.707 137.532C543.778 131.975 547.713 125.505 550.512 118.082C553.331 110.658 554.73 103.032 554.73 95.2036C554.73 87.3748 553.229 80.053 550.207 72.8326C548.22 68.1069 545.968 63.7869 542.886 59.6899Z" fill="#D94542" stroke="#D94542" stroke-miterlimit="10"/>
<path d="M542.886 59.6899L522.482 67.1334C529.662 74.6986 533.394 84.657 533.394 96.238C533.394 107.819 529.804 117.331 522.624 124.998C515.444 132.664 506.561 136.498 495.933 136.498C485.305 136.498 476.077 132.685 468.836 125.059C461.596 117.433 457.965 107.9 457.965 96.4408C457.965 93.9867 458.127 92.3844 458.472 90.1128L436.689 98.0228C436.689 105.791 438.15 112.038 441.172 119.501C444.194 126.965 448.372 133.496 453.706 139.114C459.324 145.016 465.672 149.458 472.751 152.48C479.829 155.502 487.557 157.003 495.953 157.003C504.35 157.003 511.854 155.36 519.095 152.054C526.336 148.768 532.887 143.921 538.707 137.532C543.778 131.975 547.713 125.505 550.512 118.082C553.331 110.658 554.73 103.032 554.73 95.2036C554.73 87.3748 553.229 80.053 550.207 72.8326C548.22 68.1069 545.968 63.7869 542.886 59.6899Z" fill="#D94542" stroke="#D94542" stroke-miterlimit="10"/>
<path d="M515.437 34.0965L481.626 48.4482L489.575 67.1739L523.385 52.8221L515.437 34.0965Z" fill="#D94542" stroke="#D94542" stroke-miterlimit="10"/>
<path d="M515.437 34.0965L481.626 48.4482L489.575 67.1739L523.385 52.8221L515.437 34.0965Z" fill="#D94542" stroke="#D94542" stroke-miterlimit="10"/>
<path d="M462.312 39.0805L443.549 47.0449L457.798 80.6129L476.561 72.6485L462.312 39.0805Z" fill="#D94542" stroke="#D94542" stroke-miterlimit="10"/>
<path d="M462.312 39.0805L443.549 47.0449L457.798 80.6129L476.561 72.6485L462.312 39.0805Z" fill="#D94542" stroke="#D94542" stroke-miterlimit="10"/>
</g>
<defs>
<clipPath id="clip0_813_3859">
<rect width="555.745" height="200" fill="white"/>
</clipPath>
</defs>
</svg>
