<svg width="560" height="200" viewBox="0 0 560 200" fill="none" xmlns="http://www.w3.org/2000/svg">
<g clip-path="url(#clip0_813_3938)">
<path d="M99.5333 53.1816C93.9271 47.5028 87.782 43.2645 81.0877 40.4665C74.3934 37.6686 67.1188 36.2593 59.2742 36.2593C50.4452 36.2593 42.5799 37.7101 35.6784 40.622C28.7768 43.5339 22.4141 48.0313 16.6007 54.1246C11.2742 59.6582 7.18097 66.0727 4.30014 73.3577C1.42967 80.6427 -0.0107422 88.3525 -0.0107422 96.4769C-0.0107422 113.928 5.73019 128.446 17.2224 140.042C28.7146 151.638 43.1499 157.441 60.5281 157.441C67.9582 157.441 74.9426 156.021 81.4919 153.182C88.0411 150.342 93.9789 146.156 99.3053 140.622V142.093C99.3053 153.72 95.7302 163.057 88.5903 170.104C81.44 177.15 72.0203 180.663 60.3209 180.663C53.5955 180.663 47.6162 179.244 42.4038 176.404C37.181 173.565 32.9634 169.451 29.7406 164.052H7.56439C11.554 175.472 18.2483 184.321 27.6369 190.591C37.0255 196.86 48.3416 200 61.5851 200C79.8753 200 94.238 194.311 104.673 182.922C115.108 171.534 120.331 155.793 120.331 135.679V39.2023H99.5229V53.1816H99.5333ZM88.6525 125.648C80.839 133.596 71.8131 137.575 61.5851 137.575C50.3727 137.575 40.9012 133.617 33.1602 125.7C25.4193 117.783 21.5437 107.979 21.5437 96.2696C21.5437 84.5598 25.4089 75.7101 33.1602 68.0002C40.9012 60.2904 50.238 56.4354 61.1706 56.4354C72.1032 56.4354 81.0152 60.4873 88.7561 68.5702C96.497 76.6634 100.373 86.3836 100.373 97.7411C100.373 108.394 96.466 117.689 88.6525 125.648Z" fill="white"/>
<path d="M99.5333 53.1816C93.9271 47.5028 87.782 43.2645 81.0877 40.4665C74.3934 37.6686 67.1188 36.2593 59.2742 36.2593C50.4452 36.2593 42.5799 37.7101 35.6784 40.622C28.7768 43.5339 22.4141 48.0313 16.6007 54.1246C11.2742 59.6582 7.18097 66.0727 4.30014 73.3577C1.42967 80.6427 -0.0107422 88.3525 -0.0107422 96.4769C-0.0107422 113.928 5.73019 128.446 17.2224 140.042C28.7146 151.638 43.1499 157.441 60.5281 157.441C67.9582 157.441 74.9426 156.021 81.4919 153.182C88.0411 150.342 93.9789 146.156 99.3053 140.622V142.093C99.3053 153.72 95.7302 163.057 88.5903 170.104C81.44 177.15 72.0203 180.663 60.3209 180.663C53.5955 180.663 47.6162 179.244 42.4038 176.404C37.181 173.565 32.9634 169.451 29.7406 164.052H7.56439C11.554 175.472 18.2483 184.321 27.6369 190.591C37.0255 196.86 48.3416 200 61.5851 200C79.8753 200 94.238 194.311 104.673 182.922C115.108 171.534 120.331 155.793 120.331 135.679V39.2023H99.5229V53.1816H99.5333ZM88.6525 125.648C80.839 133.596 71.8131 137.575 61.5851 137.575C50.3727 137.575 40.9012 133.617 33.1602 125.7C25.4193 117.783 21.5437 107.979 21.5437 96.2696C21.5437 84.5598 25.4089 75.7101 33.1602 68.0002C40.9012 60.2904 50.238 56.4354 61.1706 56.4354C72.1032 56.4354 81.0152 60.4873 88.7561 68.5702C96.497 76.6634 100.373 86.3836 100.373 97.7411C100.373 108.394 96.466 117.689 88.6525 125.648Z" fill="white"/>
<path d="M165.109 1.78223H144.508V25.6371H165.109V1.78223Z" fill="white"/>
<path d="M165.109 1.78223H144.508V25.6371H165.109V1.78223Z" fill="white"/>
<path d="M165.109 39.2021H144.508V154.808H165.109V39.2021Z" fill="white"/>
<path d="M165.109 39.2021H144.508V154.808H165.109V39.2021Z" fill="white"/>
<path d="M195.067 35.7306V39.2021H181.927V57.2746H195.699V154.808H216.403V57.2746H234.476V39.2021H215.45V37.5233C215.45 30.943 216.776 26.2383 219.44 23.4404C222.103 20.6425 226.517 19.2332 232.683 19.2332H234.466V0C221.367 0 211.512 2.99482 204.932 8.98446C198.341 14.9741 195.056 23.8964 195.056 35.7306H195.067Z" fill="white"/>
<path d="M195.067 35.7306V39.2021H181.927V57.2746H195.699V154.808H216.403V57.2746H234.476V39.2021H215.45V37.5233C215.45 30.943 216.776 26.2383 219.44 23.4404C222.103 20.6425 226.517 19.2332 232.683 19.2332H234.466V0C221.367 0 211.512 2.99482 204.932 8.98446C198.341 14.9741 195.056 23.8964 195.056 35.7306H195.067Z" fill="white"/>
<path d="M281.46 1.78223H260.756V39.2019H244.352V58.1242H260.756V154.808H281.46V58.1242H297.854V39.2019H281.46V1.78223Z" fill="white"/>
<path d="M281.46 1.78223H260.756V39.2019H244.352V58.1242H260.756V154.808H281.46V58.1242H297.854V39.2019H281.46V1.78223Z" fill="white"/>
<path d="M385.036 132.218C379.398 135.513 373.139 137.161 366.279 137.161C356.673 137.161 348.901 133.689 342.03 127.585C337.875 123.896 336.922 122.663 332.88 115.088L423.243 79.9274C421.626 73.6579 419.139 67.8963 415.782 62.6424C410.103 54.1657 402.901 47.5647 394.186 42.8289C385.461 38.0932 376.02 35.7305 365.865 35.7305C357.315 35.7305 349.429 37.3263 342.217 40.518C335.005 43.7097 328.518 48.4559 322.777 54.7564C317.378 60.5698 313.295 67.0154 310.538 74.0932C307.771 81.1709 306.383 88.7771 306.383 96.9015C306.383 105.026 307.906 112.435 310.953 119.969C313.999 127.502 318.217 134.104 323.616 139.782C329.357 145.813 335.771 150.332 342.849 153.337C349.927 156.352 357.74 157.855 366.29 157.855C378.973 157.855 390.093 154.456 399.657 147.658C409.222 140.86 424.051 123.927 425.056 103.399L402.207 111.886C399.139 120.031 390.683 128.912 385.046 132.207L385.036 132.218ZM343.409 64.4351C350.134 58.86 357.999 56.3937 367.108 56.3937C376.217 56.3937 384.756 59.5025 390.02 64.2279C396.155 69.7305 396.808 71.5543 396.808 71.5543L329.595 98.3108C329.284 89.2538 331.782 74.0724 343.419 64.4351H343.409Z" fill="white"/>
<path d="M385.036 132.218C379.398 135.513 373.139 137.161 366.279 137.161C356.673 137.161 348.901 133.689 342.03 127.585C337.875 123.896 336.922 122.663 332.88 115.088L423.243 79.9274C421.626 73.6579 419.139 67.8963 415.782 62.6424C410.103 54.1657 402.901 47.5647 394.186 42.8289C385.461 38.0932 376.02 35.7305 365.865 35.7305C357.315 35.7305 349.429 37.3263 342.217 40.518C335.005 43.7097 328.518 48.4559 322.777 54.7564C317.378 60.5698 313.295 67.0154 310.538 74.0932C307.771 81.1709 306.383 88.7771 306.383 96.9015C306.383 105.026 307.906 112.435 310.953 119.969C313.999 127.502 318.217 134.104 323.616 139.782C329.357 145.813 335.771 150.332 342.849 153.337C349.927 156.352 357.74 157.855 366.29 157.855C378.973 157.855 390.093 154.456 399.657 147.658C409.222 140.86 424.051 123.927 425.056 103.399L402.207 111.886C399.139 120.031 390.683 128.912 385.046 132.207L385.036 132.218ZM343.409 64.4351C350.134 58.86 357.999 56.3937 367.108 56.3937C376.217 56.3937 384.756 59.5025 390.02 64.2279C396.155 69.7305 396.808 71.5543 396.808 71.5543L329.595 98.3108C329.284 89.2538 331.782 74.0724 343.419 64.4351H343.409Z" fill="white"/>
<path d="M547.419 59.2746L526.808 66.8083C534.062 74.4456 537.844 84.5078 537.844 96.2073C537.844 107.907 534.217 117.523 526.963 125.264C519.709 133.005 510.725 136.881 500.01 136.881C489.295 136.881 479.948 133.026 472.632 125.316C465.305 117.606 461.647 107.979 461.647 96.4145C461.647 93.9378 461.813 92.3109 462.155 90.0104L440.145 97.9897C440.145 105.834 441.616 112.155 444.673 119.689C447.72 127.223 451.937 133.824 457.336 139.503C463.015 145.461 469.419 149.959 476.569 153.005C483.72 156.052 491.533 157.575 500.01 157.575C508.487 157.575 516.072 155.907 523.398 152.58C530.725 149.254 537.326 144.373 543.212 137.917C548.321 132.311 552.3 125.762 555.139 118.259C557.979 110.767 559.398 103.057 559.398 95.1399C559.398 87.2228 557.875 79.8342 554.828 72.5389C552.828 67.7617 550.549 63.399 547.43 59.2539L547.419 59.2746Z" fill="white"/>
<path d="M547.419 59.2746L526.808 66.8083C534.062 74.4456 537.844 84.5078 537.844 96.2073C537.844 107.907 534.217 117.523 526.963 125.264C519.709 133.005 510.725 136.881 500.01 136.881C489.295 136.881 479.948 133.026 472.632 125.316C465.305 117.606 461.647 107.979 461.647 96.4145C461.647 93.9378 461.813 92.3109 462.155 90.0104L440.145 97.9897C440.145 105.834 441.616 112.155 444.673 119.689C447.72 127.223 451.937 133.824 457.336 139.503C463.015 145.461 469.419 149.959 476.569 153.005C483.72 156.052 491.533 157.575 500.01 157.575C508.487 157.575 516.072 155.907 523.398 152.58C530.725 149.254 537.326 144.373 543.212 137.917C548.321 132.311 552.3 125.762 555.139 118.259C557.979 110.767 559.398 103.057 559.398 95.1399C559.398 87.2228 557.875 79.8342 554.828 72.5389C552.828 67.7617 550.549 63.399 547.43 59.2539L547.419 59.2746Z" fill="white"/>
<path d="M519.701 33.4213L485.542 47.9209L493.571 66.8366L527.73 52.337L519.701 33.4213Z" fill="white"/>
<path d="M519.701 33.4213L485.542 47.9209L493.571 66.8366L527.73 52.337L519.701 33.4213Z" fill="white"/>
<path d="M466.013 38.4447L447.05 46.4941L461.444 80.405L480.407 72.3555L466.013 38.4447Z" fill="white"/>
<path d="M466.013 38.4447L447.05 46.4941L461.444 80.405L480.407 72.3555L466.013 38.4447Z" fill="white"/>
</g>
<defs>
<clipPath id="clip0_813_3938">
<rect width="559.399" height="200" fill="white"/>
</clipPath>
</defs>
</svg>
