<?xml version="1.0" encoding="utf-8"?>
<!-- Generator: Adobe Illustrator 28.1.0, SVG Export Plug-In . SVG Version: 6.00 Build 0)  -->
<svg version="1.1" id="Calque_1" xmlns="http://www.w3.org/2000/svg" xmlns:xlink="http://www.w3.org/1999/xlink" x="0px" y="0px"
	 viewBox="0 0 64.2 66.9" style="enable-background:new 0 0 64.2 66.9;" xml:space="preserve">
<style type="text/css">
	.st0{fill:url(#SVGID_1_);}
	.st1{fill:url(#SVGID_00000164496673104052300360000013447819196259779249_);}
	.st2{fill:url(#SVGID_00000078017580723183518860000006942564373039009710_);}
	.st3{fill:url(#SVGID_00000130617940400725307830000015609321917055084975_);}
	.st4{fill:url(#SVGID_00000167378276630715738360000000526375356544884145_);}
	.st5{fill:url(#SVGID_00000049180401261198906180000002668114230743931838_);}
	.st6{fill:url(#SVGID_00000171716014650594135270000016110156514936066207_);}
	.st7{fill:url(#SVGID_00000163071526960317514970000010167111061643876260_);}
	.st8{fill:url(#SVGID_00000054248647467576902780000007933399214674713021_);}
</style>
<g id="a">
</g>
<g>
	<linearGradient id="SVGID_1_" gradientUnits="userSpaceOnUse" x1="1.668930e-06" y1="40.4044" x2="64.24" y2="40.4044">
		<stop  offset="0" style="stop-color:#D94542"/>
		<stop  offset="0.24" style="stop-color:#DF5041"/>
		<stop  offset="0.67" style="stop-color:#EF6E3F"/>
		<stop  offset="1" style="stop-color:#FF8B3D"/>
	</linearGradient>
	<path class="st0" d="M57.8,13.9L46.7,18c3.9,4.1,5.9,9.5,5.9,15.8s-2,11.5-5.9,15.7c-3.9,4.2-8.8,6.3-14.5,6.3s-10.8-2.1-14.7-6.2
		c-3.9-4.2-5.9-9.3-5.9-15.6c0-1.3,0.1-2.2,0.3-3.4L0,34.8c0,4.2,0.8,7.6,2.4,11.7c1.6,4.1,3.9,7.6,6.8,10.7
		c3.1,3.2,6.5,5.6,10.4,7.3c3.9,1.6,8.1,2.5,12.6,2.5s8.6-0.9,12.6-2.7c3.9-1.8,7.5-4.4,10.7-7.9c2.8-3,4.9-6.6,6.4-10.6
		s2.3-8.2,2.3-12.5s-0.8-8.2-2.5-12.2C60.7,18.5,59.5,16.1,57.8,13.9L57.8,13.9z"/>

		<linearGradient id="SVGID_00000070081344930986652180000013445802530807417500_" gradientUnits="userSpaceOnUse" x1="1.668930e-06" y1="40.4044" x2="64.24" y2="40.4044">
		<stop  offset="0" style="stop-color:#D94542"/>
		<stop  offset="0.24" style="stop-color:#DF5041"/>
		<stop  offset="0.67" style="stop-color:#EF6E3F"/>
		<stop  offset="1" style="stop-color:#FF8B3D"/>
	</linearGradient>
	<path style="fill:url(#SVGID_00000070081344930986652180000013445802530807417500_);" d="M57.8,13.9L46.7,18
		c3.9,4.1,5.9,9.5,5.9,15.8s-2,11.5-5.9,15.7c-3.9,4.2-8.8,6.3-14.5,6.3s-10.8-2.1-14.7-6.2c-3.9-4.2-5.9-9.3-5.9-15.6
		c0-1.3,0.1-2.2,0.3-3.4L0,34.8c0,4.2,0.8,7.6,2.4,11.7c1.6,4.1,3.9,7.6,6.8,10.7c3.1,3.2,6.5,5.6,10.4,7.3
		c3.9,1.6,8.1,2.5,12.6,2.5s8.6-0.9,12.6-2.7c3.9-1.8,7.5-4.4,10.7-7.9c2.8-3,4.9-6.6,6.4-10.6s2.3-8.2,2.3-12.5s-0.8-8.2-2.5-12.2
		C60.7,18.5,59.5,16.1,57.8,13.9L57.8,13.9z"/>

		<linearGradient id="SVGID_00000121253231976061968710000003910178265324518561_" gradientUnits="userSpaceOnUse" x1="1.668930e-06" y1="40.4044" x2="64.24" y2="40.4044">
		<stop  offset="0" style="stop-color:#D94542"/>
		<stop  offset="0.24" style="stop-color:#DF5041"/>
		<stop  offset="0.67" style="stop-color:#EF6E3F"/>
		<stop  offset="1" style="stop-color:#FF8B3D"/>
	</linearGradient>
	<path style="fill:url(#SVGID_00000121253231976061968710000003910178265324518561_);" d="M57.8,13.9L46.7,18
		c3.9,4.1,5.9,9.5,5.9,15.8s-2,11.5-5.9,15.7c-3.9,4.2-8.8,6.3-14.5,6.3s-10.8-2.1-14.7-6.2c-3.9-4.2-5.9-9.3-5.9-15.6
		c0-1.3,0.1-2.2,0.3-3.4L0,34.8c0,4.2,0.8,7.6,2.4,11.7c1.6,4.1,3.9,7.6,6.8,10.7c3.1,3.2,6.5,5.6,10.4,7.3
		c3.9,1.6,8.1,2.5,12.6,2.5s8.6-0.9,12.6-2.7c3.9-1.8,7.5-4.4,10.7-7.9c2.8-3,4.9-6.6,6.4-10.6s2.3-8.2,2.3-12.5s-0.8-8.2-2.5-12.2
		C60.7,18.5,59.5,16.1,57.8,13.9L57.8,13.9z"/>

		<linearGradient id="SVGID_00000006705905597084394500000009754239961359279496_" gradientUnits="userSpaceOnUse" x1="24.4518" y1="9.0003" x2="47.1781" y2="9.0003">
		<stop  offset="0" style="stop-color:#D94542"/>
		<stop  offset="0.24" style="stop-color:#DF5041"/>
		<stop  offset="0.67" style="stop-color:#EF6E3F"/>
		<stop  offset="1" style="stop-color:#FF8B3D"/>
	</linearGradient>
	<polygon style="fill:url(#SVGID_00000006705905597084394500000009754239961359279496_);" points="24.5,7.8 42.9,0 47.2,10.2
		28.8,18 	"/>

		<linearGradient id="SVGID_00000016766303918206737050000010752710086861281940_" gradientUnits="userSpaceOnUse" x1="24.4518" y1="9.0003" x2="47.1781" y2="9.0003">
		<stop  offset="0" style="stop-color:#D94542"/>
		<stop  offset="0.24" style="stop-color:#DF5041"/>
		<stop  offset="0.67" style="stop-color:#EF6E3F"/>
		<stop  offset="1" style="stop-color:#FF8B3D"/>
	</linearGradient>
	<polygon style="fill:url(#SVGID_00000016766303918206737050000010752710086861281940_);" points="24.5,7.8 42.9,0 47.2,10.2
		28.8,18 	"/>

		<linearGradient id="SVGID_00000113324028183986351130000017908815425593075634_" gradientUnits="userSpaceOnUse" x1="24.4518" y1="9.0003" x2="47.1781" y2="9.0003">
		<stop  offset="0" style="stop-color:#D94542"/>
		<stop  offset="0.24" style="stop-color:#DF5041"/>
		<stop  offset="0.67" style="stop-color:#EF6E3F"/>
		<stop  offset="1" style="stop-color:#FF8B3D"/>
	</linearGradient>
	<polygon style="fill:url(#SVGID_00000113324028183986351130000017908815425593075634_);" points="24.5,7.8 42.9,0 47.2,10.2
		28.8,18 	"/>

		<linearGradient id="SVGID_00000082363868197741051840000017435305003229723324_" gradientUnits="userSpaceOnUse" x1="3.7122" y1="14.013" x2="21.6858" y2="14.013">
		<stop  offset="0" style="stop-color:#D94542"/>
		<stop  offset="0.24" style="stop-color:#DF5041"/>
		<stop  offset="0.67" style="stop-color:#EF6E3F"/>
		<stop  offset="1" style="stop-color:#FF8B3D"/>
	</linearGradient>
	<polygon style="fill:url(#SVGID_00000082363868197741051840000017435305003229723324_);" points="3.7,7 13.9,2.7 21.7,21
		11.5,25.3 	"/>

		<linearGradient id="SVGID_00000060721320965172759000000010953639820469454502_" gradientUnits="userSpaceOnUse" x1="3.7122" y1="14.013" x2="21.6858" y2="14.013">
		<stop  offset="0" style="stop-color:#D94542"/>
		<stop  offset="0.24" style="stop-color:#DF5041"/>
		<stop  offset="0.67" style="stop-color:#EF6E3F"/>
		<stop  offset="1" style="stop-color:#FF8B3D"/>
	</linearGradient>
	<polygon style="fill:url(#SVGID_00000060721320965172759000000010953639820469454502_);" points="3.7,7 13.9,2.7 21.7,21
		11.5,25.3 	"/>

		<linearGradient id="SVGID_00000060746534732484583880000012602076505103004599_" gradientUnits="userSpaceOnUse" x1="3.7122" y1="14.013" x2="21.6858" y2="14.013">
		<stop  offset="0" style="stop-color:#D94542"/>
		<stop  offset="0.24" style="stop-color:#DF5041"/>
		<stop  offset="0.67" style="stop-color:#EF6E3F"/>
		<stop  offset="1" style="stop-color:#FF8B3D"/>
	</linearGradient>
	<polygon style="fill:url(#SVGID_00000060746534732484583880000012602076505103004599_);" points="3.7,7 13.9,2.7 21.7,21
		11.5,25.3 	"/>
</g>
</svg>
