<svg width="24" height="24" viewBox="0 0 24 24" fill="none" xmlns="http://www.w3.org/2000/svg"><circle cx="12" cy="12" r="1" fill="currentColor" /><path d="M12 3C12.1887 3 12.4695 3.09148 12.8301 3.47266C13.1928 3.85623 13.5664 4.46568 13.9004 5.30078C14.5661 6.9654 15 9.33352 15 12C15 14.6665 14.5661 17.0346 13.9004 18.6992C13.5664 19.5343 13.1928 20.1438 12.8301 20.5273C12.4695 20.9085 12.1887 21 12 21C11.8113 21 11.5305 20.9085 11.1699 20.5273C10.8072 20.1438 10.4336 19.5343 10.0996 18.6992C9.43387 17.0346 9 14.6665 9 12C9 9.33352 9.43388 6.9654 10.0996 5.30078C10.4336 4.46568 10.8072 3.85623 11.1699 3.47266C11.5305 3.09148 11.8113 3 12 3Z" stroke="currentColor" stroke-width="2"/><path d="M19.7941 7.50011C19.8885 7.6635 19.9496 7.95243 19.7998 8.45531C19.649 8.96124 19.308 9.58946 18.7518 10.2963C17.6431 11.7051 15.8091 13.2649 13.4999 14.5982C11.1907 15.9314 8.92287 16.7397 7.1484 16.9955C6.25817 17.1238 5.5436 17.105 5.03005 16.9827C4.51964 16.861 4.30001 16.6635 4.20567 16.5001C4.11134 16.3367 4.05015 16.0478 4.19997 15.5449C4.35078 15.039 4.69182 14.4108 5.24801 13.7039C6.35675 12.2951 8.19066 10.7353 10.4999 9.40204C12.8091 8.0688 15.0769 7.26048 16.8514 7.00472C17.7416 6.87645 18.4562 6.89521 18.9698 7.01757C19.4802 7.13927 19.6998 7.33673 19.7941 7.50011Z" stroke="currentColor" stroke-width="2"/><path d="M19.7941 16.4999C19.8885 16.3365 19.9496 16.0476 19.7998 15.5447C19.649 15.0388 19.308 14.4105 18.7518 13.7037C17.6431 12.2949 15.8091 10.7351 13.4999 9.40181C11.1907 8.06857 8.92287 7.26026 7.1484 7.00449C6.25817 6.87623 5.5436 6.89499 5.03005 7.01735C4.51964 7.13904 4.30001 7.3365 4.20567 7.49989C4.11134 7.66328 4.05015 7.95221 4.19997 8.45509C4.35078 8.96102 4.69182 9.58923 5.24801 10.2961C6.35675 11.7049 8.19066 13.2647 10.4999 14.598C12.8091 15.9312 15.0769 16.7395 16.8514 16.9953C17.7416 17.1235 18.4562 17.1048 18.9698 16.9824C19.4802 16.8607 19.6998 16.6633 19.7941 16.4999Z" stroke="currentColor" stroke-width="2"/></svg> 