<svg width="24" height="24" viewBox="0 0 24 24" fill="none" xmlns="http://www.w3.org/2000/svg"><path d="M12 13.9C13.1046 13.9 14 13.0046 14 11.9C14 10.7955 13.1046 9.90002 12 9.90002C10.8954 9.90002 10 10.7955 10 11.9C10 13.0046 10.8954 13.9 12 13.9ZM12 13.9L11.9998 15.5M6.7 3.39999C5.8 5.89999 6.7 8.59999 8.9 10.1M8.9 10.1C6.5 8.99999 3.7 9.59999 2 11.6M8.9 10.1L10.2999 10.9M17.3001 3.39999C18.2001 5.89999 17.3001 8.59999 15.1001 10.1M15.1001 10.1C17.5001 8.89999 20.3001 9.49999 22.0001 11.6M15.1001 10.1L13.7002 10.9M16.6998 20.8C14.0998 20.4 12.0998 18.2 11.9998 15.5M11.9998 15.5C11.7998 18.1 9.8998 20.3 7.2998 20.7M13.5 5.4C12.5 5.2 11.5 5.2 10.5 5.4M17 16.4C17.7 15.7 18.2 14.8 18.5 13.9M5.5 13.9C5.8 14.8 6.3 15.7 7 16.4" stroke="currentColor" stroke-width="1" stroke-linecap="round" stroke-linejoin="round"/></svg> 