<svg width="24" height="24" viewBox="0 0 24 24" fill="none" xmlns="http://www.w3.org/2000/svg"><g clip-path="url(#clip0_629_26852)"><path d="M10.0996 2.17999C11.3545 1.93537 12.6448 1.93537 13.8996 2.17999M17.5996 3.71002C18.6619 4.42828 19.5753 5.34509 20.2896 6.41002M21.8193 10.1C22.064 11.3548 22.064 12.6451 21.8193 13.9M20.2894 17.6C19.5711 18.6622 18.6543 19.5757 17.5894 20.29M13.8996 21.82C12.6447 22.0644 11.3545 22.0644 10.0996 21.82M6.39947 20.29C5.3372 19.5718 4.42378 18.655 3.70947 17.59M2.17956 13.9C1.93494 12.6451 1.93494 11.3548 2.17956 10.1M3.70947 6.40002C4.42773 5.33775 5.34454 4.42433 6.40947 3.71002" stroke="currentColor" stroke-width="1" stroke-linecap="round" stroke-linejoin="round"/></g><defs><clipPath id="clip0_629_26852"><rect width="24" height="24" fill="currentColor"/></clipPath></defs></svg> 