<svg width="24" height="24" viewBox="0 0 24 24" fill="none" xmlns="http://www.w3.org/2000/svg"><path d="M8 12.5C8 13.8807 6.88071 15 5.5 15C4.11929 15 3 13.8807 3 12.5C3 11.1193 4.11929 10 5.5 10C6.88071 10 8 11.1193 8 12.5Z" fill="currentColor" fill-opacity="0.5"/><path d="M15 12.5C15 13.8807 13.8807 15 12.5 15C11.1193 15 10 13.8807 10 12.5C10 11.1193 11.1193 10 12.5 10C13.8807 10 15 11.1193 15 12.5Z" fill="currentColor" fill-opacity="0.5"/><path d="M22 12.5C22 13.8807 20.8807 15 19.5 15C18.1193 15 17 13.8807 17 12.5C17 11.1193 18.1193 10 19.5 10C20.8807 10 22 11.1193 22 12.5Z" fill="currentColor" fill-opacity="0.5"/></svg>
