<svg width="21" height="21" viewBox="0 0 21 21" fill="none" xmlns="http://www.w3.org/2000/svg"><path d="M15.3232 3.11914C15.9906 2.51272 17.0094 2.51272 17.6768 3.11914C17.7109 3.15022 17.7466 3.18601 17.7803 3.21973C17.814 3.25343 17.8498 3.28906 17.8809 3.32324C18.4873 3.99063 18.4873 5.00937 17.8809 5.67676C17.8531 5.70734 17.8205 5.73813 17.79 5.76855L17.791 5.76953L17.7861 5.77539L17.7803 5.78027L14.4219 9.13867C14.2554 9.30514 14.0779 9.49142 13.8506 9.62012C13.6233 9.74869 13.3728 9.80523 13.1445 9.8623L12.4902 10.0254C12.3342 10.0644 12.1343 10.117 11.9629 10.1338C11.7822 10.1515 11.4258 10.1524 11.1367 9.86328C10.8476 9.57419 10.8485 9.21782 10.8662 9.03711C10.883 8.86571 10.9356 8.6658 10.9746 8.50977L11.1377 7.85547C11.1948 7.62717 11.2513 7.37667 11.3799 7.14941C11.5003 6.93669 11.6713 6.76757 11.8291 6.61035L15.2197 3.21973C15.2534 3.18601 15.2891 3.15022 15.3232 3.11914Z" stroke="currentColor" stroke-opacity="0.5" stroke-width="2"/><path d="M15.25 3.75L16.75 2.75L18.25 4.25L17.25 5.75L15.25 3.75Z" fill="currentColor" fill-opacity="0.5"/><path d="M10 2H5C2.79086 2 1 3.79086 1 6V16C1 18.2091 2.79086 20 5 20H15C17.2091 20 19 18.2091 19 16V11" stroke="currentColor" stroke-opacity="0.5" stroke-width="2.5" stroke-linecap="round"/></svg> 