<svg width="26" height="26" viewBox="0 0 26 26" fill="none" xmlns="http://www.w3.org/2000/svg"><path d="M2.05318 9.04476H2.55318V9.04456L2.05318 9.04476ZM1.5265 9.57143L1.20296 9.19022L0.16468 10.0714H1.5265V9.57143ZM2.05215 6.41744H1.55215L1.55215 6.41763L2.05215 6.41744ZM9.04475 1V0.5L9.04455 0.5L9.04475 1ZM6.41738 1.00103V1.50103L6.41757 1.50103L6.41738 1.00103ZM1.52668 9.57127L1.85022 9.95248L2.8885 9.07127H1.52668V9.57127ZM11.2857 15.0139H10.7857L10.7857 15.0173L11.2857 15.0139ZM7.85714 9.57143V9.07143L7.85614 9.07143L7.85714 9.57143ZM17.1654 18.3316V18.8316H18.2257L17.5512 18.0136L17.1654 18.3316ZM16.434 18.2634L16.1133 17.8798L16.1132 17.8799L16.434 18.2634ZM17.1652 18.3316V17.8316H16.1011L16.7803 18.6508L17.1652 18.3316ZM17.0984 19.0681L16.7777 18.6845L16.7775 18.6847L17.0984 19.0681ZM8.04495 19.0681L8.36586 18.6847L8.36479 18.6838L8.04495 19.0681ZM7.97717 18.3316L8.36295 18.6497L8.36296 18.6497L7.97717 18.3316ZM8.70855 18.2634L9.0295 17.88L9.02926 17.8798L8.70855 18.2634ZM24.4725 16.4286L24.8537 16.7521L25.5525 15.9286H24.4725V16.4286ZM24.4724 16.4287L24.0911 16.1052L23.3924 16.9287H24.4724V16.4287ZM24.999 16.9553H24.499V16.9555L24.999 16.9553ZM25 19.5834H25.5V19.5832L25 19.5834ZM9.04494 23.9469V24.4469H10.1191L9.42752 23.625L9.04494 23.9469ZM2.05426 19.5833H2.55426V19.5831L2.05426 19.5833ZM2.05323 16.9552H1.55323L1.55323 16.9554L2.05323 16.9552ZM9.04481 23.9468V23.4468H7.97062L8.66224 24.2687L9.04481 23.9468ZM19.5822 1L19.9101 0.622516L19.769 0.5H19.5822V1ZM19.5824 1.00016L19.2545 1.37764L19.3955 1.50016H19.5824V1.00016ZM24.999 6.41744H24.499V6.41763L24.999 6.41744ZM25 9.04476H25.5V9.04456L25 9.04476ZM1.55318 9.04476C1.55318 9.05961 1.54137 9.07143 1.5265 9.07143V10.0714C2.09365 10.0714 2.55318 9.6119 2.55318 9.04476H1.55318ZM1.55215 6.41763L1.55318 9.04495L2.55318 9.04456L2.55215 6.41724L1.55215 6.41763ZM6.41633 1.55334C3.73424 1.55334 1.55215 3.73429 1.55215 6.41744H2.55215C2.55215 4.28673 4.28636 2.55334 6.41633 2.55334V1.55334ZM9.04475 1.55334H6.41633V2.55334H9.04475V1.55334ZM9.07143 1.52667C9.07143 1.54153 9.05962 1.55334 9.04475 1.55334V2.55334C9.6119 2.55334 10.0714 2.09381 10.0714 1.52667H9.07143ZM9.04475 1.5C9.05962 1.5 9.07143 1.51182 9.07143 1.52667H10.0714C10.0714 0.959504 9.61188 0.5 9.04475 0.5V1.5ZM6.41757 1.50103L9.04494 1.5L9.04455 0.5L6.41718 0.501026L6.41757 1.50103ZM1.5 6.4183C1.5 3.70765 3.70651 1.50103 6.41738 1.50103V0.501026C3.15423 0.501026 0.5 3.15537 0.5 6.4183H1.5ZM1.5 9.04563V6.4183H0.5V9.04563H1.5ZM1.52668 9.07127C1.51117 9.07127 1.5 9.05882 1.5 9.04563H0.5C0.5 9.6124 0.960182 10.0713 1.52668 10.0713V9.07127ZM1.85004 9.95264L1.85022 9.95248L1.20314 9.19006L1.20296 9.19022L1.85004 9.95264ZM11.8163 16.0714C13.2422 16.0714 14.3571 14.856 14.3571 13.4186H13.3571C13.3571 14.3547 12.6403 15.0714 11.8163 15.0714V16.0714ZM10.7857 15.0173C10.7894 15.5717 11.2217 16.0714 11.8163 16.0714V15.0714C11.8152 15.0714 11.8148 15.0713 11.8139 15.071C11.8126 15.0704 11.8091 15.0685 11.8047 15.0638C11.7956 15.0542 11.7859 15.0364 11.7857 15.0106L10.7857 15.0173ZM11.8152 13.9554C11.2217 13.9554 10.7857 14.4547 10.7857 15.0139H11.7857C11.7857 14.9889 11.795 14.972 11.8036 14.9629C11.8079 14.9584 11.8113 14.9565 11.8127 14.9559C11.8137 14.9555 11.8141 14.9554 11.8152 14.9554V13.9554ZM12.2981 13.4186C12.2981 13.7396 12.0562 13.9554 11.8152 13.9554V14.9554C12.6581 14.9554 13.2981 14.2409 13.2981 13.4186H12.2981ZM12.2981 9.27286V13.4186H13.2981V9.27286H12.2981ZM13.3276 8.21429C12.7341 8.21429 12.2981 8.71358 12.2981 9.27286H13.2981C13.2981 9.24784 13.3073 9.23096 13.316 9.22183C13.3203 9.21731 13.3237 9.21543 13.3251 9.21481C13.3261 9.21438 13.3265 9.21429 13.3276 9.21429V8.21429ZM14.3571 9.27286C14.3571 8.71357 13.9211 8.21429 13.3276 8.21429V9.21429C13.3288 9.21429 13.3292 9.21438 13.3301 9.21481C13.3315 9.21543 13.335 9.21731 13.3392 9.22183C13.3479 9.23096 13.3571 9.24784 13.3571 9.27286H14.3571ZM14.3571 13.4186V9.27286H13.3571V13.4186H14.3571ZM6.5 10.1624V11.5519H7.5V10.1624H6.5ZM7.85614 9.07143C7.5313 9.07208 7.21546 9.16218 6.96702 9.33348C6.7207 9.50332 6.5 9.788 6.5 10.1624H7.5C7.5 10.2111 7.47091 10.2007 7.53468 10.1567C7.59634 10.1142 7.70907 10.0717 7.85814 10.0714L7.85614 9.07143ZM9.21429 10.1624C9.21429 9.78823 8.99384 9.50332 8.74747 9.33326C8.49889 9.16167 8.18266 9.07143 7.85714 9.07143V10.0714C8.00555 10.0714 8.11789 10.1138 8.1794 10.1562C8.24312 10.2002 8.21429 10.2108 8.21429 10.1624H9.21429ZM9.21429 11.5519V10.1624H8.21429V11.5519H9.21429ZM7.85714 12.6429C8.18181 12.6429 8.49787 12.5529 8.74653 12.3817C8.99307 12.2119 9.21429 11.9269 9.21429 11.5519H8.21429C8.21429 11.5036 8.2432 11.5141 8.17931 11.5581C8.11753 11.6007 8.00502 11.6429 7.85714 11.6429V12.6429ZM6.5 11.5519C6.5 11.9261 6.72044 12.211 6.96682 12.381C7.2154 12.5526 7.53163 12.6429 7.85714 12.6429V11.6429C7.70874 11.6429 7.5964 11.6005 7.53489 11.558C7.47117 11.5141 7.5 11.5035 7.5 11.5519H6.5ZM18.5 11.5519C18.5 11.5036 18.5289 11.5141 18.465 11.5581C18.4032 11.6007 18.2907 11.6429 18.1429 11.6429V12.6429C18.4675 12.6429 18.7836 12.5529 19.0322 12.3817C19.2788 12.2119 19.5 11.9269 19.5 11.5519H18.5ZM18.5 10.1624V11.5519H19.5V10.1624H18.5ZM18.1429 10.0714C18.2913 10.0714 18.4036 10.1138 18.4651 10.1562C18.5288 10.2002 18.5 10.2108 18.5 10.1624H19.5C19.5 9.78823 19.2796 9.50332 19.0332 9.33326C18.7846 9.16167 18.4684 9.07143 18.1429 9.07143V10.0714ZM17.7857 10.1624C17.7857 10.2107 17.7568 10.2002 17.8207 10.1562C17.8825 10.1136 17.995 10.0714 18.1429 10.0714V9.07143C17.8182 9.07143 17.5021 9.16135 17.2535 9.33261C17.0069 9.50241 16.7857 9.78736 16.7857 10.1624H17.7857ZM17.7857 11.5519V10.1624H16.7857V11.5519H17.7857ZM18.1429 11.6429C17.9954 11.6429 17.8829 11.6006 17.8209 11.5579C17.7565 11.5135 17.7857 11.5028 17.7857 11.5519H16.7857C16.7857 11.9267 17.0072 12.2115 17.2533 12.3812C17.5018 12.5525 17.8178 12.6429 18.1429 12.6429V11.6429ZM17.5512 18.0136C17.1919 17.5778 16.5471 17.5171 16.1133 17.8798L16.7548 18.647C16.762 18.6409 16.7727 18.6413 16.7796 18.6497L17.5512 18.0136ZM17.1652 18.8316H17.1654V17.8316H17.1652V18.8316ZM17.4191 19.4517C17.8511 19.0906 17.9098 18.4463 17.5501 18.0125L16.7803 18.6508C16.7828 18.6538 16.784 18.6564 16.7847 18.6587C16.7855 18.6614 16.7859 18.6649 16.7856 18.6687C16.7849 18.6763 16.7819 18.681 16.7777 18.6845L17.4191 19.4517ZM12.5717 21.2143C14.293 21.2143 16.0159 20.6261 17.4193 19.4516L16.7775 18.6847C15.5592 19.7043 14.0652 20.2143 12.5717 20.2143V21.2143ZM7.72404 19.4516C9.1287 20.6272 10.8504 21.2143 12.5717 21.2143V20.2143C11.0781 20.2143 9.58526 19.7053 8.36586 18.6847L7.72404 19.4516ZM7.59139 18.0136C7.23487 18.446 7.28998 19.0903 7.72511 19.4525L8.36479 18.6838C8.36207 18.6815 8.36071 18.6796 8.35976 18.6778C8.35863 18.6756 8.35761 18.6725 8.35726 18.6687C8.35657 18.661 8.35866 18.6549 8.36295 18.6497L7.59139 18.0136ZM9.02926 17.8798C8.59546 17.5171 7.95067 17.5778 7.59139 18.0136L8.36296 18.6497C8.36986 18.6413 8.38059 18.6409 8.38783 18.647L9.02926 17.8798ZM16.1132 17.8799C14.0602 19.5979 11.0815 19.5978 9.0295 17.88L8.38759 18.6468C10.8111 20.6756 14.3306 20.6755 16.7549 18.6468L16.1132 17.8799ZM24.4725 15.9286C23.9054 15.9286 23.4459 16.3881 23.4459 16.9552H24.4459C24.4459 16.9404 24.4577 16.9286 24.4725 16.9286V15.9286ZM24.8536 16.7522L24.8537 16.7521L24.0912 16.1051L24.0911 16.1052L24.8536 16.7522ZM25.499 16.9553C25.499 16.3882 25.0395 15.9287 24.4724 15.9287V16.9287C24.4872 16.9287 24.499 16.9405 24.499 16.9553H25.499ZM25.5 19.5832L25.499 16.9551L24.499 16.9555L24.5 19.5836L25.5 19.5832ZM19.5833 25.5C22.8461 25.5 25.5 22.846 25.5 19.5834H24.5C24.5 22.2937 22.2938 24.5 19.5833 24.5V25.5ZM16.9552 25.5H19.5833V24.5H16.9552V25.5ZM15.9286 24.4734C15.9286 25.0405 16.3881 25.5 16.9552 25.5V24.5C16.9404 24.5 16.9286 24.4882 16.9286 24.4734H15.9286ZM16.9552 23.4468C16.3881 23.4468 15.9286 23.9063 15.9286 24.4734H16.9286C16.9286 24.4586 16.9403 24.4468 16.9552 24.4468V23.4468ZM19.5822 23.4468H16.9552V24.4468H19.5822V23.4468ZM23.4459 19.5832C23.4459 21.7136 21.7119 23.4468 19.5822 23.4468V24.4468C22.264 24.4468 24.4459 22.2661 24.4459 19.5832H23.4459ZM23.4459 16.9552V19.5832H24.4459V16.9552H23.4459ZM6.4179 24.4469H9.04494V23.4469H6.4179V24.4469ZM1.55426 19.5833C1.55426 22.2651 3.73501 24.4469 6.4179 24.4469V23.4469C4.28743 23.4469 2.55426 21.7129 2.55426 19.5833H1.55426ZM1.55323 16.9554L1.55426 19.5835L2.55426 19.5831L2.55323 16.955L1.55323 16.9554ZM1.52662 16.9286C1.54145 16.9286 1.55323 16.9404 1.55323 16.9552H2.55323C2.55323 16.3881 2.09372 15.9286 1.52662 15.9286V16.9286ZM1.5 16.9552C1.5 16.9404 1.51179 16.9286 1.52662 16.9286V15.9286C0.959505 15.9286 0.5 16.3881 0.5 16.9552H1.5ZM1.5 19.5833V16.9552H0.5V19.5833H1.5ZM6.41671 24.5C3.70636 24.5 1.5 22.2938 1.5 19.5833H0.5C0.5 22.8461 3.1541 25.5 6.41671 25.5V24.5ZM9.04481 24.5H6.41671V25.5H9.04481V24.5ZM9.07143 24.4734C9.07143 24.4882 9.05964 24.5 9.04481 24.5V25.5C9.61194 25.5 10.0714 25.0405 10.0714 24.4734H9.07143ZM9.04481 24.4468C9.05964 24.4468 9.07143 24.4586 9.07143 24.4734H10.0714C10.0714 23.9063 9.61192 23.4468 9.04481 23.4468V24.4468ZM9.42752 23.625L9.42739 23.6248L8.66224 24.2687L8.66237 24.2688L9.42752 23.625ZM19.5822 0.5H16.9552V1.5H19.5822V0.5ZM19.9102 0.622673L19.9101 0.622516L19.2543 1.37748L19.2545 1.37764L19.9102 0.622673ZM25.499 6.41744C25.499 3.15439 22.845 0.500157 19.5824 0.500157V1.50016C22.2926 1.50016 24.499 3.70658 24.499 6.41744H25.499ZM25.5 9.04456L25.499 6.41724L24.499 6.41763L24.5 9.04495L25.5 9.04456ZM24.4734 10.0714C25.0406 10.0714 25.5 9.61184 25.5 9.04476H24.5C24.5 9.05967 24.4882 9.07143 24.4734 9.07143V10.0714ZM23.4468 9.04476C23.4468 9.61186 23.9062 10.0714 24.4734 10.0714V9.07143C24.4586 9.07143 24.4468 9.05968 24.4468 9.04476H23.4468ZM23.4468 6.41744V9.04476H24.4468V6.41744H23.4468ZM19.5832 2.55334C21.7136 2.55334 23.4468 4.28747 23.4468 6.41744H24.4468C24.4468 3.73544 22.2661 1.55334 19.5832 1.55334V2.55334ZM16.9552 2.55334H19.5832V1.55334H16.9552V2.55334ZM15.9286 1.52667C15.9286 2.09377 16.388 2.55334 16.9552 2.55334V1.55334C16.9404 1.55334 16.9286 1.54159 16.9286 1.52667H15.9286ZM16.9552 0.5C16.388 0.5 15.9286 0.959594 15.9286 1.52667H16.9286C16.9286 1.51175 16.9404 1.5 16.9552 1.5V0.5Z" fill="currentColor" fill-opacity="0.5"/></svg> 