<svg width="20" height="20" viewBox="0 0 20 20" fill="none" xmlns="http://www.w3.org/2000/svg"><path d="M2.5 8.66663C2.5 7.72382 2.5 7.25241 2.79289 6.95952C3.08579 6.66663 3.55719 6.66663 4.5 6.66663H15.5C16.4428 6.66663 16.9142 6.66663 17.2071 6.95952C17.5 7.25241 17.5 7.72382 17.5 8.66663V9.58329C17.5 9.81562 17.5 9.93178 17.4808 10.0284C17.4019 10.4251 17.0918 10.7352 16.6951 10.8141C16.5985 10.8333 16.4823 10.8333 16.25 10.8333V10.8333C16.0177 10.8333 15.9015 10.8333 15.8049 10.8525C15.4082 10.9314 15.0981 11.2415 15.0192 11.6382C15 11.7348 15 11.851 15 12.0833V14.6666C15 15.6094 15 16.0808 14.7071 16.3737C14.4142 16.6666 13.9428 16.6666 13 16.6666H7C6.05719 16.6666 5.58579 16.6666 5.29289 16.3737C5 16.0808 5 15.6094 5 14.6666V12.0833C5 11.851 5 11.7348 4.98079 11.6382C4.90188 11.2415 4.59178 10.9314 4.19509 10.8525C4.09849 10.8333 3.98233 10.8333 3.75 10.8333V10.8333C3.51767 10.8333 3.40151 10.8333 3.30491 10.8141C2.90822 10.7352 2.59812 10.4251 2.51921 10.0284C2.5 9.93178 2.5 9.81562 2.5 9.58329V8.66663Z" stroke="currentColor" stroke-width="2"/><path d="M4.16667 10.8334H15.8333" stroke="currentColor" stroke-width="2" stroke-linecap="round"/><path d="M10 5.83337L10 16.6667" stroke="currentColor" stroke-width="2" stroke-linecap="round"/><path d="M10 5.83333L9.26787 5.1012C8.37928 4.21261 7.29601 3.54311 6.10384 3.14572V3.14572C5.15083 2.82805 4.16667 3.5374 4.16667 4.54196V4.69371C4.16667 5.37428 4.60216 5.9785 5.24781 6.19371L6.66667 6.66667" stroke="currentColor" stroke-width="2" stroke-linecap="round"/><path d="M10 5.83333L10.7321 5.1012C11.6207 4.21261 12.704 3.54311 13.8962 3.14572V3.14572C14.8492 2.82805 15.8333 3.5374 15.8333 4.54196V4.69371C15.8333 5.37428 15.3978 5.9785 14.7522 6.19371L13.3333 6.66667" stroke="currentColor" stroke-width="2" stroke-linecap="round"/></svg> 