<svg width="24" height="24" viewBox="0 0 24 24" fill="none" xmlns="http://www.w3.org/2000/svg"><path fill-rule="evenodd" clip-rule="evenodd" d="M18.2977 5.68327C17.9188 5.75068 17.3816 5.92698 16.5214 6.2137L10.0304 8.37737C9.20303 8.65316 8.61927 8.84808 8.19936 9.01191C7.99169 9.09294 7.84706 9.15767 7.74649 9.21072C7.6613 9.25566 7.63068 9.28042 7.62886 9.28169C7.223 9.67459 7.223 10.3256 7.62886 10.7185C7.63068 10.7198 7.6613 10.7446 7.74649 10.7895C7.84706 10.8426 7.99169 10.9073 8.19936 10.9883C8.61927 11.1521 9.20303 11.3471 10.0304 11.6229C10.0494 11.6292 10.0683 11.6355 10.0869 11.6417C10.3603 11.7326 10.6003 11.8124 10.8213 11.9293C11.3538 12.2109 11.7891 12.6463 12.0707 13.1787C12.1876 13.3997 12.2674 13.6397 12.3584 13.9131C12.3646 13.9318 12.3708 13.9506 12.3772 13.9696C12.653 14.797 12.8479 15.3808 13.0117 15.8007C13.0927 16.0083 13.1575 16.153 13.2105 16.2535C13.2555 16.3387 13.2802 16.3693 13.2815 16.3712C13.6744 16.777 14.3254 16.777 14.7183 16.3712C14.7196 16.3693 14.7444 16.3387 14.7893 16.2535C14.8424 16.153 14.9071 16.0083 14.9881 15.8007C15.1519 15.3808 15.3469 14.797 15.6227 13.9696L17.7863 7.47862C18.073 6.61844 18.2493 6.08122 18.3167 5.70231C18.3182 5.69443 18.3195 5.68675 18.3207 5.67928C18.3133 5.68054 18.3056 5.68187 18.2977 5.68327ZM18.5567 5.66016C18.5565 5.66034 18.5532 5.66007 18.5474 5.6588C18.554 5.65934 18.5569 5.65998 18.5567 5.66016ZM18.3412 5.45257C18.3399 5.44683 18.3397 5.44355 18.3399 5.44334C18.34 5.44314 18.3407 5.446 18.3412 5.45257ZM17.9474 3.71419C18.4984 3.61617 19.2529 3.58698 19.833 4.16704C20.413 4.74709 20.3839 5.5016 20.2858 6.0526C20.1895 6.59403 19.9631 7.27315 19.7076 8.03943L19.6837 8.11107L17.52 14.6021L17.5106 14.6303C17.2463 15.4231 17.0357 16.0551 16.8513 16.5276C16.678 16.9718 16.4725 17.4322 16.163 17.7542C14.9826 18.9827 13.0173 18.9827 11.8368 17.7542C11.5273 17.4322 11.3218 16.9718 11.1485 16.5276C10.9641 16.0551 10.7535 15.4232 10.4892 14.6304L10.4798 14.6021C10.3594 14.2409 10.3323 14.1696 10.3028 14.1137C10.2089 13.9363 10.0638 13.7911 9.88627 13.6973C9.83046 13.6677 9.75917 13.6406 9.39797 13.5202L9.36964 13.5108C8.57685 13.2465 7.94494 13.0359 7.4724 12.8515C7.02821 12.6782 6.56784 12.4727 6.24579 12.1632C5.01735 10.9828 5.01735 9.01746 6.24579 7.83698C6.56784 7.52751 7.02821 7.32202 7.4724 7.14871C7.94496 6.96433 8.5769 6.75369 9.36972 6.48941L9.39797 6.48L15.889 4.31634C15.9129 4.30835 15.9368 4.30039 15.9606 4.29246C16.7269 4.03695 17.406 3.8105 17.9474 3.71419Z" fill="currentColor" /></svg> 