<svg width="26" height="24" viewBox="0 0 26 24" fill="none" xmlns="http://www.w3.org/2000/svg"><path d="M14.7007 11.0181L19.2393 8.39775C19.6198 8.17808 20.1063 8.30844 20.326 8.68892L20.4227 8.85641C21.0482 9.93988 21.0715 11.2692 20.4842 12.3739C19.7688 13.7197 18.1343 14.283 16.7416 13.6637L14.7944 12.7979C14.0476 12.4658 13.9929 11.4268 14.7007 11.0181Z" stroke="currentColor" stroke-opacity="0.5" stroke-width="2.5"/><path d="M14.7007 12.9818L19.2393 15.6021C19.6198 15.8218 19.7501 16.3083 19.5305 16.6888L19.4338 16.8563C18.8082 17.9398 17.6687 18.6245 16.4183 18.6683C14.8951 18.7217 13.59 17.5878 13.43 16.0721L13.2062 13.9528C13.1204 13.14 13.9929 12.5731 14.7007 12.9818Z" stroke="currentColor" stroke-opacity="0.5" stroke-width="2.5"/><path d="M13 13.9638V19.2045C13 19.6438 12.6438 20 12.2045 20H12.0111C10.76 20 9.59719 19.3555 8.93412 18.2946C8.12631 17.0021 8.45569 15.305 9.68835 14.4085L11.4118 13.155C12.0728 12.6743 13 13.1465 13 13.9638Z" stroke="currentColor" stroke-opacity="0.5" stroke-width="2.5"/><path d="M11.2993 12.9819L6.7607 15.6023C6.38022 15.8219 5.8937 15.6916 5.67403 15.3111L5.57733 15.1436C4.95179 14.0601 4.92852 12.7308 5.51577 11.6261C6.2312 10.2803 7.86566 9.71699 9.25835 10.3363L11.2056 11.2021C11.9524 11.5342 12.0071 12.5732 11.2993 12.9819Z" stroke="currentColor" stroke-opacity="0.5" stroke-width="2.5"/><path d="M11.2993 11.018L6.7607 8.39763C6.38022 8.17796 6.24985 7.69144 6.46952 7.31096L6.56623 7.14347C7.19177 6.06 8.33134 5.37521 9.58165 5.33143C11.1049 5.27809 12.41 6.41192 12.57 7.92767L12.7938 10.047C12.8796 10.8597 12.0071 11.4266 11.2993 11.018Z" stroke="currentColor" stroke-opacity="0.5" stroke-width="2.5"/><path d="M13 10.0362V4.79549C13 4.35616 13.3562 4 13.7955 4H13.9889C15.24 4 16.4028 4.6445 17.0659 5.70541C17.8737 6.99791 17.5443 8.69505 16.3117 9.59153L14.5882 10.845C13.9272 11.3257 13 10.8535 13 10.0362Z" stroke="currentColor" stroke-opacity="0.5" stroke-width="2.5"/></svg> 