<svg width="24" height="24" viewBox="0 0 24 24" fill="none" xmlns="http://www.w3.org/2000/svg"><path d="M11.3716 17.8628L6.82984 6H9.15155L13.8289 17.8628H11.3716ZM2 17.8628L6.67732 6H8.99903L4.45729 17.8628H2ZM4.20308 15.253V13.2024H11.6427V15.253H4.20308Z" fill="currentColor" fill-opacity="0.5"/><path d="M19.8302 17.8628L19.7454 16.1511V13.5752C19.7454 13.0668 19.6889 12.6375 19.576 12.2873C19.463 11.9257 19.2879 11.6546 19.0506 11.4738C18.8246 11.2818 18.5196 11.1857 18.1355 11.1857C17.7965 11.1857 17.4915 11.2592 17.2203 11.406C16.9492 11.5529 16.7176 11.7902 16.5255 12.1178L14.4919 11.423C14.6501 11.0614 14.8817 10.7112 15.1867 10.3723C15.4918 10.022 15.8872 9.7396 16.373 9.52494C16.8701 9.29898 17.4746 9.186 18.1863 9.186C19.0337 9.186 19.7398 9.33852 20.3047 9.64356C20.8809 9.94861 21.3102 10.4005 21.5926 10.9993C21.8751 11.5868 22.0106 12.3099 21.9993 13.1685L21.9485 17.8628H19.8302ZM17.4915 18.0661C16.4747 18.0661 15.6838 17.8402 15.1189 17.3883C14.5654 16.9363 14.2886 16.298 14.2886 15.4733C14.2886 14.5694 14.5879 13.8916 15.1867 13.4396C15.7968 12.9764 16.6498 12.7448 17.7457 12.7448H19.8979V14.4056H18.5253C17.7909 14.4056 17.2825 14.496 17 14.6768C16.7176 14.8462 16.5764 15.0891 16.5764 15.4055C16.5764 15.654 16.6893 15.8517 16.9153 15.9986C17.1413 16.1342 17.4576 16.202 17.8643 16.202C18.2259 16.202 18.5478 16.1172 18.8303 15.9478C19.1127 15.767 19.333 15.5411 19.4912 15.2699C19.6607 14.9875 19.7454 14.6994 19.7454 14.4056H20.3386C20.3386 15.558 20.1126 16.4562 19.6607 17.1002C19.2201 17.7441 18.497 18.0661 17.4915 18.0661Z" fill="currentColor" fill-opacity="0.5"/></svg>
