<svg width="22" height="24" viewBox="0 0 22 24" fill="none" xmlns="http://www.w3.org/2000/svg"><path d="M9.85843 8.32576V9.49547C9.85843 9.65743 9.98799 9.7894 10.147 9.7894C10.306 9.7894 10.4355 9.65743 10.4355 9.49547V8.67367C10.6475 8.75765 10.8713 8.79964 11.1069 8.80564H11.154C11.2777 8.80564 11.4013 8.79364 11.525 8.76965V9.49547C11.525 9.65743 11.6545 9.7894 11.8135 9.7894C11.9725 9.7894 12.1021 9.65743 12.1021 9.49547V8.56572C12.2611 8.48174 12.4083 8.37376 12.5379 8.24179C12.6498 8.12782 12.6556 7.94187 12.5496 7.82788C12.4378 7.71391 12.2552 7.70791 12.1433 7.81589C11.5721 8.36776 10.6711 8.34976 10.1234 7.7679C9.58166 7.18605 9.59933 6.26827 10.1705 5.71041C10.7241 5.17055 11.5897 5.17055 12.1433 5.71041C12.2552 5.82438 12.4378 5.81839 12.5497 5.69842C12.6615 5.58445 12.6557 5.39849 12.5379 5.28451C12.4024 5.15254 12.2552 5.04456 12.1021 4.96058V4.03083C12.1021 3.86887 11.9726 3.7369 11.8136 3.7369C11.6546 3.7369 11.525 3.86887 11.525 4.03083V4.75066C11.1658 4.67868 10.7889 4.71467 10.4356 4.85264V4.03083C10.4356 3.86888 10.306 3.73691 10.147 3.73691C9.98802 3.73691 9.85846 3.86888 9.85846 4.03083V5.20055C9.82902 5.23054 9.79369 5.25453 9.76424 5.28453C9.37557 5.66244 9.1577 6.16631 9.14591 6.71216C9.13413 7.25801 9.32846 7.77389 9.69945 8.1698C9.74656 8.22379 9.79956 8.27178 9.85256 8.31977L9.85843 8.32576ZM21.9893 17.2637C21.9304 16.8498 21.7184 16.4899 21.3886 16.2439L21.371 16.2319C20.7998 15.812 20.0224 15.842 19.4865 16.3099C19.4865 16.3099 19.4807 16.3099 19.4748 16.3159L16.1181 19.471L11.6133 18.9911H11.5838H11.5779C11.3541 18.9911 11.1657 18.8052 11.1657 18.5712C11.1657 18.3373 11.3541 18.1453 11.5838 18.1453H14.8169C15.6413 18.1453 16.3126 17.4615 16.3126 16.6217C16.3126 15.8179 15.6943 15.1461 14.8993 15.0981L7.73849 14.7862C6.44885 14.7322 5.16505 15.0141 4.01094 15.614L0.153751 17.6595C0.0183077 17.7315 -0.0405798 17.9054 0.0300846 18.0494L2.26194 22.6863C2.31494 22.8003 2.4386 22.8663 2.55638 22.8483L5.50078 22.4344C6.31932 22.3204 7.16143 22.4344 7.92108 22.7583L9.82317 23.5861C9.82317 23.5861 9.83495 23.5861 9.84084 23.5921C10.5887 23.862 11.3719 24 12.1669 24H15.7944C16.9603 24 18.0675 23.4301 18.7623 22.4704L21.7009 18.4212C21.9423 18.0853 22.0424 17.6774 21.9835 17.2695L21.9893 17.2637ZM21.2414 18.0675L18.3029 22.1166C17.7199 22.9264 16.7836 23.4063 15.8001 23.4063H12.1727C11.4484 23.4063 10.7299 23.2803 10.0468 23.0344L8.1506 22.2126C7.29082 21.8467 6.34861 21.7207 5.42997 21.8467L2.69168 22.2306L0.677695 18.0377L4.28162 16.1302C5.3416 15.5844 6.53114 15.3204 7.72062 15.3684L14.8754 15.6803C15.3642 15.7103 15.7411 16.1242 15.7411 16.6221C15.7411 17.1379 15.3288 17.5578 14.8224 17.5578H11.5893C11.0417 17.5578 10.5941 18.0137 10.5941 18.5716C10.5941 19.1295 11.0358 19.5733 11.5717 19.5793L16.1884 20.0712C16.2708 20.0772 16.3532 20.0532 16.4121 19.9932L19.8572 16.754C20.1928 16.4661 20.6757 16.4481 21.0349 16.712H21.0408C21.2469 16.868 21.3765 17.0899 21.4118 17.3479C21.4471 17.6058 21.3882 17.8577 21.2351 18.0677L21.2414 18.0675ZM10.9832 11.7269C13.6685 11.7269 15.8532 9.50146 15.8532 6.76625C15.8532 4.03103 13.6684 1.80558 10.9832 1.80558C8.29801 1.80558 6.11325 4.03103 6.11325 6.76625C6.11325 9.50146 8.29801 11.7269 10.9832 11.7269ZM10.9832 2.38727C13.3505 2.38727 15.2821 4.34878 15.2821 6.76625C15.2821 9.18371 13.3565 11.1452 10.9832 11.1452C8.60995 11.1452 6.68431 9.18371 6.68431 6.76625C6.68431 4.34878 8.60995 2.38727 10.9832 2.38727ZM10.9832 13.5325C14.6459 13.5325 17.6257 10.4973 17.6257 6.76625C17.6257 3.03524 14.646 0 10.9832 0C7.32043 0 4.34068 3.03524 4.34068 6.76625C4.34068 10.4973 7.32043 13.5325 10.9832 13.5325ZM10.9832 0.587835C14.3281 0.587835 17.0486 3.35914 17.0486 6.76625C17.0486 10.1734 14.328 12.9447 10.9832 12.9447C7.6384 12.9447 4.91777 10.1734 4.91777 6.76625C4.91777 3.35914 7.6384 0.587835 10.9832 0.587835Z" fill="currentColor" fill-opacity="0.5"/></svg>
