<svg width="12" height="15" viewBox="0 0 12 15" fill="none" xmlns="http://www.w3.org/2000/svg"><path d="M10.1604 5.22576L9.45991 6.78707H0L0.573113 5.22576H10.1604ZM8.80896 8.21293L8.03774 9.80989H0L0.573113 8.21293H8.80896ZM12 1.32605L10.8679 3.76426C10.6792 3.63118 10.4505 3.48622 10.1816 3.32937C9.91745 3.16778 9.61321 3.03232 9.26887 2.923C8.92924 2.80894 8.55189 2.7519 8.13679 2.7519C7.48113 2.7519 6.91038 2.91825 6.42453 3.25095C5.93868 3.58365 5.56132 4.10171 5.29245 4.80513C5.0283 5.50856 4.89623 6.4116 4.89623 7.51426C4.89623 8.62643 5.0283 9.53185 5.29245 10.2305C5.56132 10.9244 5.93868 11.4354 6.42453 11.7633C6.91038 12.0865 7.48113 12.2481 8.13679 12.2481C8.55189 12.2481 8.92924 12.1934 9.26887 12.0841C9.60849 11.9748 9.90566 11.8441 10.1604 11.692C10.4198 11.5399 10.6368 11.3997 10.8113 11.2714L11.9575 13.7096C11.4434 14.1374 10.8608 14.4606 10.2099 14.6792C9.55896 14.8931 8.86792 15 8.13679 15C6.90094 15 5.8066 14.7053 4.85377 14.116C3.90566 13.5219 3.16274 12.6687 2.625 11.5566C2.08726 10.4396 1.8184 9.09221 1.8184 7.51426C1.8184 5.94106 2.08726 4.59363 2.625 3.47196C3.16274 2.35029 3.90566 1.4924 4.85377 0.898289C5.8066 0.29943 6.90094 0 8.13679 0C8.89623 0 9.59906 0.114068 10.2453 0.342205C10.8915 0.570342 11.4764 0.898289 12 1.32605Z" fill="currentColor" /></svg> 