<svg width="352" height="55" viewBox="0 0 352 55" fill="none" xmlns="http://www.w3.org/2000/svg">
<path d="M77.6258 43.3872C75.408 43.3872 73.4763 42.8885 71.7592 41.891C70.0421 40.8936 68.7543 39.54 67.7527 37.7589C66.8226 35.9778 66.3218 33.983 66.3218 31.7032C66.3218 29.4234 66.8226 27.4286 67.7527 25.6475C68.6828 23.8664 70.0421 22.5128 71.6876 21.5154C73.4047 20.518 75.3364 20.0193 77.4828 20.0193C79.6291 20.0193 81.5608 20.518 83.2779 21.5154C84.995 22.5128 86.2828 23.8664 87.1413 25.6475L83.8502 27.1436C83.2779 25.9325 82.4193 25.0063 81.2746 24.3651C80.1299 23.724 78.8421 23.3677 77.4112 23.3677C75.9803 23.3677 74.6925 23.7239 73.5478 24.4364C72.4031 25.1488 71.5445 26.1462 70.9006 27.4286C70.2567 28.711 69.9706 30.1359 69.9706 31.7745C69.9706 33.4131 70.2567 34.8379 70.9006 36.1203C71.5445 37.4027 72.4746 38.4001 73.6193 39.1126C74.7641 39.825 76.0519 40.1812 77.5543 40.1812C79.0567 40.1812 80.3445 39.825 81.4893 39.0413C82.634 38.3289 83.4925 37.2602 84.1364 35.9066L87.4275 37.4027C86.5689 39.3263 85.2096 40.8224 83.5641 41.8198C81.7039 42.8885 79.7722 43.3872 77.6258 43.3872Z" fill="white"/>
<path d="M91.8633 42.8885V11.6838H95.4405V42.8173C95.4405 42.8885 91.8633 42.8885 91.8633 42.8885Z" fill="white"/>
<path d="M116.761 20.5894V32.1308C116.761 34.6243 116.188 36.5479 115.115 37.9728C114.042 39.3976 112.54 40.0388 110.608 40.0388C109.463 40.0388 108.462 39.8251 107.532 39.3976C106.601 38.9702 105.886 38.1865 105.385 37.0466C104.884 35.9067 104.598 34.1969 104.598 31.9883V20.5894H101.021V33.3419C101.021 36.7616 101.736 39.2552 103.31 40.8938C104.884 42.5324 107.031 43.3873 109.749 43.3873C111.61 43.3873 113.184 42.9598 114.471 42.0337C115.401 41.3925 116.188 40.5375 116.761 39.5401L116.904 42.8886H120.267V20.5894H116.761Z" fill="white"/>
<path d="M146.595 25.6476C145.736 23.8665 144.592 22.5129 143.018 21.5154C141.515 20.518 139.727 20.0193 137.723 20.0193C135.863 20.0193 134.218 20.518 132.787 21.5154C131.714 22.2279 130.855 23.154 130.14 24.3652V11.6838H126.562V42.8173H129.997L130.14 39.0414C130.855 40.1813 131.714 41.1787 132.787 41.8911C134.218 42.8885 135.863 43.3872 137.723 43.3872C139.727 43.3872 141.444 42.8885 143.018 41.8911C144.52 40.8937 145.736 39.5401 146.595 37.759C147.454 35.9779 147.883 33.9831 147.883 31.7033C147.883 29.4235 147.454 27.4287 146.595 25.6476ZM143.304 36.1204C142.66 37.4028 141.802 38.4002 140.728 39.1126C139.655 39.825 138.367 40.1812 137.008 40.1812C135.72 40.1812 134.504 39.825 133.502 39.1126C132.501 38.4002 131.714 37.4028 131.141 36.1204C130.569 34.838 130.283 33.4131 130.283 31.7745C130.283 30.1359 130.569 28.711 131.141 27.4287C131.714 26.1463 132.501 25.1489 133.574 24.4364C134.576 23.724 135.792 23.3678 137.08 23.3678C138.51 23.3678 139.727 23.724 140.8 24.4364C141.873 25.1489 142.732 26.1463 143.376 27.4287C144.019 28.711 144.306 30.1359 144.306 31.7745C144.306 33.4131 143.948 34.838 143.304 36.1204Z" fill="white"/>
<path d="M170.848 33.7693H174.569C174.569 30.7059 174.068 28.1411 173.066 26.075C172.065 24.0802 170.705 22.5129 168.917 21.5867C167.128 20.6605 165.125 20.0906 162.835 20.0906C160.403 20.0906 158.257 20.5893 156.468 21.5867C154.608 22.5841 153.177 23.9377 152.104 25.6476C151.031 27.4287 150.53 29.4235 150.53 31.7745C150.53 34.1255 151.031 36.1204 152.104 37.9015C153.177 39.6825 154.608 41.0362 156.54 42.0336C158.4 43.031 160.546 43.5297 162.979 43.5297C164.409 43.5297 165.769 43.316 167.271 42.9597C168.774 42.6035 170.062 41.8911 171.206 40.9649C172.351 40.0388 173.209 38.8276 173.782 37.2603L166.699 35.0517C166.556 35.7642 166.055 36.3341 165.34 36.7616C164.624 37.189 163.766 37.474 162.764 37.474C162.048 37.474 161.405 37.3315 160.761 36.9753C160.117 36.6191 159.688 36.1204 159.258 35.4079C159.044 34.9805 158.901 34.4818 158.829 33.9118L170.848 33.7693ZM160.331 26.4312C160.904 25.9325 161.619 25.6476 162.549 25.6476C163.694 25.6476 164.553 26.0038 165.196 26.7162C165.626 27.2862 165.983 27.9986 166.198 28.8535H159.115C159.115 28.7823 159.115 28.711 159.187 28.6398C159.401 27.7136 159.759 26.93 160.331 26.4312Z" fill="white"/>
<path d="M205.823 20.1665C204.249 20.1665 202.889 20.594 201.673 21.4489C200.6 22.1613 199.741 23.3012 199.026 24.6548C198.74 23.8712 198.382 23.23 197.881 22.66C196.593 21.0214 194.519 20.2377 191.8 20.2377C190.226 20.2377 188.867 20.6652 187.65 21.5201C186.935 22.0188 186.291 22.7313 185.719 23.515L185.432 20.8077H177.849V43.0357H185.862V31.0668C185.862 29.8556 186.148 28.9295 186.72 28.3595C187.293 27.7896 188.151 27.5046 189.296 27.5758C189.868 27.5758 190.369 27.7896 190.727 28.0745C191.084 28.3595 191.371 28.787 191.585 29.3569C191.8 29.9269 191.871 30.6393 191.871 31.4942V42.8932H199.884V31.0668C199.884 29.8556 200.171 28.9295 200.743 28.3595C201.315 27.7896 202.174 27.5046 203.319 27.5758C203.891 27.5758 204.392 27.7896 204.749 28.0745C205.107 28.3595 205.393 28.787 205.608 29.3569C205.823 29.9269 205.894 30.6393 205.894 31.4942V42.8932H213.907V30.2118C213.907 26.7922 213.263 24.2274 211.904 22.5888C210.616 20.9502 208.613 20.1665 205.823 20.1665Z" fill="white"/>
<path d="M240.032 25.4338C239.245 23.724 238.1 22.3704 236.598 21.4442C235.095 20.518 233.307 20.0906 231.16 20.0906C229.3 20.0906 227.798 20.518 226.582 21.4442C225.938 21.8717 225.437 22.4416 225.008 23.154L224.721 20.5893H217.138V51.7227H225.151V40.5375C225.58 41.1074 226.009 41.6061 226.582 42.0336C227.798 42.9597 229.3 43.3872 231.16 43.3872C233.307 43.3872 235.095 42.8885 236.598 42.0336C238.1 41.1074 239.245 39.7538 240.032 38.0439C240.819 36.2629 241.248 34.1968 241.248 31.7745C241.248 29.3522 240.819 27.1437 240.032 25.4338ZM232.305 33.9118C231.947 34.553 231.518 35.0517 230.946 35.4079C230.373 35.7642 229.73 35.9779 228.943 35.9779C228.156 35.9779 227.512 35.7642 226.939 35.4079C226.367 35.0517 225.866 34.553 225.58 33.9118C225.294 33.2706 225.079 32.5582 225.079 31.7033C225.079 30.8483 225.222 30.1359 225.58 29.4947C225.938 28.8535 226.367 28.3548 226.939 27.9986C227.512 27.6424 228.227 27.4287 228.943 27.4287C229.658 27.4287 230.373 27.5711 230.946 27.9986C231.518 28.4261 231.947 28.8535 232.305 29.4947C232.663 30.1359 232.806 30.8483 232.806 31.7033C232.806 32.5582 232.663 33.3419 232.305 33.9118Z" fill="white"/>
<path d="M244.11 42.8885V11.6838H252.123V42.8173C252.195 42.8885 244.11 42.8885 244.11 42.8885Z" fill="white"/>
<path d="M267.291 43.3872C264.93 43.3872 262.784 42.8885 260.995 41.891C259.206 40.8936 257.704 39.54 256.702 37.7589C255.701 35.9778 255.128 33.983 255.128 31.7032C255.128 29.4234 255.629 27.4286 256.702 25.6475C257.776 23.8664 259.135 22.5128 260.995 21.5154C262.855 20.518 264.93 20.0193 267.291 20.0193C269.652 20.0193 271.798 20.518 273.587 21.5154C275.447 22.5128 276.878 23.8664 277.88 25.6475C278.881 27.4286 279.454 29.4234 279.454 31.7032C279.454 33.983 278.953 35.9778 277.88 37.7589C276.806 39.54 275.447 40.8936 273.587 41.891C271.727 42.8885 269.652 43.3872 267.291 43.3872ZM267.291 35.9778C268.006 35.9778 268.722 35.7641 269.294 35.4079C269.867 35.0517 270.296 34.553 270.654 33.9118C271.011 33.2706 271.154 32.5581 271.154 31.7032C271.154 30.8483 271.011 30.1359 270.654 29.4947C270.296 28.8535 269.867 28.3548 269.294 27.9986C268.722 27.6423 268.006 27.4286 267.291 27.4286C266.576 27.4286 265.86 27.6423 265.288 27.9986C264.715 28.3548 264.215 28.8535 263.928 29.4947C263.571 30.1359 263.428 30.8483 263.428 31.7032C263.428 32.5581 263.571 33.2706 263.928 33.9118C264.286 34.553 264.715 35.0517 265.288 35.4079C265.789 35.8354 266.504 35.9778 267.291 35.9778Z" fill="white"/>
<path d="M297.769 20.5894L293.047 33.4844L287.824 20.5894H278.881L289.398 42.4611L289.04 43.316C288.826 43.886 288.468 44.2422 288.039 44.5272C287.609 44.7409 287.18 44.8834 286.679 44.8834C286.322 44.8834 285.964 44.8122 285.606 44.6697C285.248 44.5272 284.891 44.3135 284.533 44.0285L281.528 50.5116C282.243 50.9391 283.102 51.3666 284.318 51.794C285.535 52.2215 286.608 52.364 287.609 52.364C289.469 52.364 290.972 52.0078 292.117 51.2241C293.261 50.4404 294.191 49.443 294.907 48.1606C295.622 46.8782 296.338 45.3821 297.053 43.7435L306.64 20.6606L297.769 20.5894Z" fill="white"/>
<path d="M328.032 11.6838H319.519L314.582 18.167H322.166L328.032 11.6838Z" fill="white"/>
<path d="M321.522 36.6191C320.806 37.1178 319.948 37.3315 318.946 37.3315C318.231 37.3315 317.587 37.189 316.943 36.8328C316.299 36.4766 315.87 35.9779 315.441 35.2654C315.226 34.838 315.083 34.3393 315.011 33.7693H330.68C330.68 30.7059 330.179 28.1411 329.177 26.075C328.176 24.0802 326.816 22.5129 325.028 21.5867C323.239 20.6605 321.236 20.0906 318.946 20.0906C316.514 20.0906 314.367 20.5893 312.579 21.5867C310.719 22.5841 309.288 23.9377 308.215 25.6476C307.141 27.3574 306.641 29.4235 306.641 31.7745C306.641 34.1255 307.141 36.1204 308.215 37.9015C309.288 39.6825 310.719 41.0362 312.65 42.0336C314.511 43.031 316.657 43.5297 319.089 43.5297C320.52 43.5297 321.951 43.316 323.382 42.9597C324.813 42.6035 326.172 41.8911 327.317 40.9649C328.462 40.0388 329.32 38.8276 329.893 37.2603L322.81 35.0517C322.667 35.5504 322.237 36.1204 321.522 36.6191ZM316.442 26.4312C317.015 25.9325 317.73 25.6476 318.66 25.6476C319.805 25.6476 320.663 26.0038 321.307 26.7162C321.737 27.2862 322.094 27.9986 322.309 28.8535H315.226C315.226 28.7823 315.226 28.711 315.298 28.6398C315.512 27.7136 315.87 26.93 316.442 26.4312Z" fill="white"/>
<path d="M341.626 43.3873C340.123 43.3873 338.764 43.1736 337.476 42.7461C336.188 42.3186 335.115 41.7487 334.185 40.965C333.255 40.1813 332.611 39.3264 332.253 38.2578L338.621 35.7642C338.979 36.5479 339.408 37.0466 339.98 37.3316C340.553 37.5453 341.125 37.6878 341.554 37.6878C342.055 37.6878 342.413 37.6166 342.699 37.4028C342.985 37.1891 343.128 36.9041 343.128 36.5479C343.128 36.1205 342.914 35.7642 342.484 35.4793C342.055 35.1943 341.411 34.9806 340.553 34.7668L338.692 34.3394C336.689 33.8407 335.187 32.9857 334.185 31.7034C333.184 30.421 332.683 28.9961 332.683 27.3575C332.683 25.0777 333.541 23.2966 335.187 22.0855C336.904 20.8031 339.122 20.2332 342.055 20.2332C343.844 20.2332 345.275 20.4469 346.491 20.8743C347.707 21.3018 348.709 21.943 349.424 22.6554C350.14 23.3679 350.784 24.294 351.213 25.2914L344.988 27.6425C344.774 27.0725 344.416 26.6451 343.915 26.3601C343.414 26.0751 342.842 25.9326 342.127 25.9326C341.626 25.9326 341.197 26.0751 340.91 26.2889C340.624 26.5026 340.481 26.7876 340.481 27.1438C340.481 27.5 340.696 27.785 341.125 28.0699C341.554 28.3549 342.198 28.5686 343.128 28.7824L344.988 29.2098C346.348 29.5661 347.564 30.0648 348.566 30.706C349.567 31.3471 350.354 32.2021 350.927 33.1995C351.499 34.1969 351.785 35.3368 351.785 36.6192C351.785 38.044 351.356 39.3264 350.497 40.3238C349.639 41.3212 348.423 42.1049 346.849 42.6749C345.489 43.1736 343.701 43.3873 341.626 43.3873Z" fill="white"/>
<path d="M46.5756 35.3368L26.7577 44.9547L9.65854 36.6192V18.4521L26.5431 10.0453L38.348 15.8873L24.6829 22.513C22.322 23.6529 21.3203 26.5026 22.465 28.8536C23.0374 29.9935 24.039 30.8485 25.2553 31.2759C26.4715 31.7034 27.7594 31.6321 28.9041 31.0622L51.226 20.2332C52.8715 19.4495 53.9447 17.8109 53.9447 16.0298C53.9447 14.2487 52.9431 12.6101 51.2976 11.7552L28.6894 0.498716C27.3301 -0.142476 25.6846 -0.142476 24.3252 0.498716L2.64715 11.3277C1.00163 12.1114 0 13.75 0 15.5311V39.6114C0 41.3925 1.00163 43.0311 2.7187 43.886L24.6829 54.5725C25.3268 54.8575 26.1138 55.0713 26.8293 55.0713C27.5447 55.0713 28.3317 54.9288 28.9756 54.5725L50.9398 43.886C53.3008 42.7461 54.3024 39.8964 53.1577 37.5453C51.8699 35.1231 48.9366 34.1969 46.5756 35.3368Z" fill="white"/>
</svg>
